<?xml version="1.0" encoding="UTF-8" standalone="no"?>
<svg
   xmlns:dc="http://purl.org/dc/elements/1.1/"
   xmlns:cc="http://creativecommons.org/ns#"
   xmlns:rdf="http://www.w3.org/1999/02/22-rdf-syntax-ns#"
   xmlns:svg="http://www.w3.org/2000/svg"
   xmlns="http://www.w3.org/2000/svg"
   viewBox="0 0 624 361.33334"
   height="361.33334"
   width="624"
   xml:space="preserve"
   id="svg2"
   version="1.1"><metadata
     id="metadata8"><rdf:RDF><cc:Work
         rdf:about=""><dc:format>image/svg+xml</dc:format><dc:type
           rdf:resource="http://purl.org/dc/dcmitype/StillImage" /></cc:Work></rdf:RDF></metadata><defs
     id="defs6" /><g
     transform="matrix(1.3333333,0,0,-1.3333333,0,361.33333)"
     id="g10"><g
       transform="scale(0.1)"
       id="g12"><path
         id="path14"
         style="fill:#ffffff;fill-opacity:1;fill-rule:nonzero;stroke:none"
         d="m 10.793,1996.74 h 1520.76 v 302.211 H 10.793 Z" /><path
         id="path16"
         style="fill:none;stroke:#000000;stroke-width:21.58639908;stroke-linecap:butt;stroke-linejoin:miter;stroke-miterlimit:10;stroke-dasharray:none;stroke-opacity:1"
         d="m 10.793,1996.74 h 1520.76 v 302.211 H 10.793 Z" /><path
         id="path18"
         style="fill:#000000;fill-opacity:1;fill-rule:nonzero;stroke:none"
         d="m 535.234,2217.18 h 34.121 l 46.297,-84.57 v 84.57 h 28.594 v -123.3 h -34.121 l -46.297,84.57 v -84.57 h -28.594 v 123.3" /><path
         id="path20"
         style="fill:#000000;fill-opacity:1;fill-rule:nonzero;stroke:none"
         d="m 721.863,2167.14 c -6.738,0 -11.875,-2.29 -15.414,-6.89 -3.515,-4.6 -5.277,-11.23 -5.277,-19.91 0,-8.67 1.762,-15.31 5.277,-19.91 3.539,-4.59 8.676,-6.89 15.414,-6.89 6.61,0 11.664,2.3 15.164,6.89 3.496,4.6 5.246,11.24 5.246,19.91 0,8.68 -1.75,15.31 -5.246,19.91 -3.5,4.6 -8.554,6.89 -15.164,6.89 m -0.027,21.45 c 15.953,0 28.406,-4.27 37.359,-12.82 8.973,-8.52 13.461,-20.33 13.461,-35.43 0,-15.1 -4.488,-26.92 -13.461,-35.46 -8.953,-8.53 -21.406,-12.79 -37.359,-12.79 -15.992,0 -28.5,4.26 -37.527,12.79 -9.012,8.54 -13.516,20.36 -13.516,35.46 0,15.1 4.504,26.91 13.516,35.43 9.027,8.55 21.535,12.82 37.527,12.82" /><path
         id="path22"
         style="fill:#000000;fill-opacity:1;fill-rule:nonzero;stroke:none"
         d="m 859.102,2172.51 v 48.25 h 28.593 v -126.88 h -28.593 v 14.3 c -4.079,-5.57 -8.575,-9.65 -13.489,-12.23 -4.914,-2.57 -10.601,-3.86 -17.058,-3.86 -11.41,0 -20.793,4.5 -28.149,13.49 -7.332,9.01 -11,20.6 -11,34.76 0,14.17 3.668,25.75 11,34.74 7.356,9.01 16.739,13.51 28.149,13.51 6.402,0 12.07,-1.3 17.004,-3.91 4.953,-2.61 9.464,-6.66 13.543,-12.17 m -19.688,-58.97 c 6.387,0 11.266,2.28 14.633,6.86 3.371,4.58 5.055,11.23 5.055,19.94 0,8.71 -1.684,15.36 -5.055,19.94 -3.367,4.58 -8.246,6.86 -14.633,6.86 -6.348,0 -11.203,-2.28 -14.574,-6.86 -3.367,-4.58 -5.055,-11.23 -5.055,-19.94 0,-8.71 1.688,-15.36 5.055,-19.94 3.371,-4.58 8.226,-6.86 14.574,-6.86" /><path
         id="path24"
         style="fill:#000000;fill-opacity:1;fill-rule:nonzero;stroke:none"
         d="m 1011.16,2141.43 v -8.24 h -69.695 c 0.726,-7.15 3.277,-12.51 7.652,-16.08 4.391,-3.57 10.528,-5.36 18.399,-5.36 6.367,0 12.875,0.88 19.519,2.65 6.664,1.79 13.515,4.48 20.555,8.07 v -23.23 c -6.98,-2.36 -13.965,-4.15 -20.945,-5.36 -6.981,-1.19 -13.961,-1.79 -20.942,-1.79 -16.699,0 -29.683,4.23 -38.953,12.68 -9.25,8.45 -13.879,20.31 -13.879,35.57 0,14.98 4.508,26.77 13.516,35.35 9.027,8.6 21.453,12.9 37.277,12.9 14.391,0 25.902,-4.28 34.539,-12.84 8.637,-8.57 12.957,-20 12.957,-34.32 m -28.594,9.63 c 0,5.37 -1.738,9.68 -5.222,12.96 -3.461,3.28 -8.004,4.91 -13.625,4.91 -6.067,0 -11,-1.53 -14.797,-4.61 -3.801,-3.07 -6.164,-7.49 -7.094,-13.26 h 40.738" /><path
         id="path26"
         style="fill:#ffffff;fill-opacity:1;fill-rule:nonzero;stroke:none"
         d="m 10.793,1262.8 h 1520.76 v 733.938 H 10.793 Z" /><path
         id="path28"
         style="fill:none;stroke:#000000;stroke-width:21.58639908;stroke-linecap:butt;stroke-linejoin:miter;stroke-miterlimit:10;stroke-dasharray:none;stroke-opacity:1"
         d="m 10.793,1262.8 h 1520.76 v 733.938 H 10.793 Z" /><path
         id="path30"
         style="fill:#000000;fill-opacity:1;fill-rule:nonzero;stroke:none"
         d="m 167.305,1942.13 v -21.44 h 28.593 v -8.94 h -28.593 v -41.88 c 0,-5.69 1.07,-9.67 3.211,-11.92 2.14,-2.25 5.882,-3.38 11.222,-3.38 h 14.16 v -8.94 h -15.386 c -9.418,0 -16.067,1.82 -19.938,5.45 -3.851,3.63 -5.781,9.89 -5.781,18.79 v 41.88 h -19.656 v 8.94 h 19.656 v 21.44 h 12.512" /><path
         id="path32"
         style="fill:#000000;fill-opacity:1;fill-rule:nonzero;stroke:none"
         d="m 284.289,1904.61 c -2.551,2.49 -5.141,4.3 -7.766,5.44 -2.625,1.14 -5.507,1.7 -8.656,1.7 -7.426,0 -13.101,-2.5 -17.031,-7.51 -3.91,-4.99 -5.863,-12.21 -5.863,-21.67 v -36.94 h -12.508 v 75.06 h 12.508 v -15.11 c 1.992,5.46 5.043,9.64 9.16,12.54 4.113,2.9 8.988,4.36 14.629,4.36 2.941,0 5.679,-0.44 8.211,-1.32 2.55,-0.85 4.988,-2.2 7.316,-4.04 v -12.51" /><path
         id="path34"
         style="fill:#000000;fill-opacity:1;fill-rule:nonzero;stroke:none"
         d="m 338.418,1883.16 h -3.91 c -6.887,0 -12.082,-1.23 -15.582,-3.68 -3.481,-2.46 -5.219,-6.13 -5.219,-11 0,-4.4 1.301,-7.82 3.906,-10.25 2.606,-2.44 6.227,-3.66 10.864,-3.66 6.496,0 11.605,2.29 15.328,6.87 3.722,4.6 5.605,10.94 5.64,19.04 v 2.68 h -11.027 m 23.539,4.72 v -42.25 h -12.512 v 11.62 c -2.566,-4.58 -5.797,-7.96 -9.687,-10.14 -3.871,-2.17 -8.59,-3.26 -14.156,-3.26 -7.411,0 -13.329,2.1 -17.762,6.31 -4.43,4.22 -6.645,9.87 -6.645,16.95 0,8.19 2.739,14.39 8.211,18.62 5.492,4.25 13.551,6.37 24.18,6.37 h 15.859 v 2.04 c -0.035,6.18 -1.515,10.65 -4.437,13.43 -2.906,2.79 -7.539,4.18 -13.906,4.18 -4.079,0 -8.2,-0.6 -12.372,-1.81 -4.167,-1.21 -8.226,-2.99 -12.171,-5.33 v 12.51 c 4.464,1.78 8.738,3.12 12.816,4.02 4.094,0.89 8.066,1.34 11.922,1.34 6.086,0 11.281,-0.93 15.582,-2.8 4.316,-1.86 7.809,-4.65 10.469,-8.37 1.675,-2.27 2.859,-5.08 3.547,-8.41 0.707,-3.33 1.062,-8.34 1.062,-15.02" /><path
         id="path36"
         style="fill:#000000;fill-opacity:1;fill-rule:nonzero;stroke:none"
         d="m 444.984,1892.13 v -46.5 h -12.507 v 46.5 c 0,6.73 -1.172,11.69 -3.52,14.85 -2.328,3.18 -5.977,4.77 -10.945,4.77 -5.676,0 -10.051,-2.04 -13.125,-6.14 -3.051,-4.07 -4.578,-9.93 -4.578,-17.56 v -42.42 h -12.508 v 75.06 h 12.508 v -11.28 c 2.179,4.28 5.129,7.53 8.851,9.74 3.723,2.22 8.125,3.33 13.207,3.33 7.594,0 13.262,-2.52 17.004,-7.54 3.742,-5.03 5.613,-12.63 5.613,-22.81" /><path
         id="path38"
         style="fill:#000000;fill-opacity:1;fill-rule:nonzero;stroke:none"
         d="m 522.652,1918.9 v -12.51 c -3.461,1.79 -6.953,3.13 -10.468,4.02 -3.52,0.9 -7.094,1.34 -10.723,1.34 -5.492,0 -9.586,-0.87 -12.285,-2.62 -2.699,-1.73 -4.051,-4.38 -4.051,-7.93 0,-3.22 0.996,-5.63 2.988,-7.23 1.992,-1.58 6.942,-3.13 14.856,-4.64 l 4.773,-0.95 c 6.071,-1.17 10.668,-3.51 13.793,-7.03 3.129,-3.5 4.692,-8.06 4.692,-13.69 0,-7.46 -2.586,-13.3 -7.762,-17.5 -5.156,-4.21 -12.324,-6.31 -21.5,-6.31 -3.629,0 -7.438,0.44 -11.422,1.34 -3.984,0.89 -8.293,2.23 -12.926,4.02 v 12.51 c 4.465,-2.38 8.738,-4.17 12.817,-5.36 4.093,-1.2 7.964,-1.79 11.613,-1.79 5.289,0 9.383,1.1 12.289,3.29 2.922,2.22 4.383,5.31 4.383,9.27 0,5.72 -5.297,9.67 -15.891,11.84 l -0.527,0.14 -4.469,0.95 c -7.019,1.36 -12.148,3.66 -15.387,6.9 -3.218,3.26 -4.828,7.69 -4.828,13.29 0,7.09 2.399,12.57 7.203,16.42 4.821,3.87 11.692,5.81 20.606,5.81 3.965,0 7.773,-0.3 11.422,-0.9 3.668,-0.59 7.269,-1.49 10.804,-2.68" /><path
         id="path40"
         style="fill:#000000;fill-opacity:1;fill-rule:nonzero;stroke:none"
         d="m 611.043,1949.28 v -10.72 h -13.57 c -4.301,0 -7.289,-0.86 -8.961,-2.57 -1.66,-1.69 -2.489,-4.71 -2.489,-9.04 v -6.26 h 25.02 v -8.94 h -25.02 v -66.12 h -12.507 v 66.12 h -19.657 v 8.94 h 19.657 v 4.92 c 0,8.11 1.871,14.09 5.613,17.92 3.758,3.84 9.613,5.75 17.562,5.75 h 14.352" /><path
         id="path42"
         style="fill:#000000;fill-opacity:1;fill-rule:nonzero;stroke:none"
         d="m 665.453,1911.75 c -6.461,0 -11.348,-2.41 -14.66,-7.23 -3.313,-4.8 -4.969,-11.92 -4.969,-21.36 0,-9.4 1.656,-16.52 4.969,-21.36 3.312,-4.82 8.199,-7.23 14.66,-7.23 6.496,0 11.402,2.41 14.715,7.23 3.312,4.84 4.969,11.96 4.969,21.36 0,9.44 -1.657,16.56 -4.969,21.36 -3.313,4.82 -8.219,7.23 -14.715,7.23 m 0,10.73 c 10.422,0 18.391,-3.37 23.902,-10.11 5.528,-6.72 8.293,-16.46 8.293,-29.21 0,-12.78 -2.757,-22.54 -8.265,-29.26 -5.492,-6.7 -13.469,-10.05 -23.93,-10.05 -10.426,0 -18.39,3.35 -23.902,10.05 -5.492,6.72 -8.238,16.48 -8.238,29.26 0,12.75 2.746,22.49 8.238,29.21 5.512,6.74 13.476,10.11 23.902,10.11" /><path
         id="path44"
         style="fill:#000000;fill-opacity:1;fill-rule:nonzero;stroke:none"
         d="m 782.465,1904.61 c -2.551,2.49 -5.141,4.3 -7.766,5.44 -2.621,1.14 -5.508,1.7 -8.652,1.7 -7.43,0 -13.106,-2.5 -17.035,-7.51 -3.91,-4.99 -5.864,-12.21 -5.864,-21.67 v -36.94 h -12.507 v 75.06 h 12.507 v -15.11 c 1.993,5.46 5.043,9.64 9.161,12.54 4.113,2.9 8.988,4.36 14.629,4.36 2.941,0 5.679,-0.44 8.21,-1.32 2.551,-0.85 4.989,-2.2 7.317,-4.04 v -12.51" /><path
         id="path46"
         style="fill:#000000;fill-opacity:1;fill-rule:nonzero;stroke:none"
         d="m 835.059,1912.68 c 1.507,3.33 3.414,5.8 5.722,7.39 2.328,1.61 5.129,2.41 8.407,2.41 5.957,0 10.164,-2.36 12.621,-7.07 2.457,-4.69 3.683,-13.54 3.683,-26.55 v -43.23 H 854.77 v 42.7 c 0,10.51 -0.606,17.05 -1.813,19.6 -1.191,2.55 -3.379,3.82 -6.562,3.82 -3.649,0 -6.145,-1.36 -7.485,-4.1 -1.34,-2.72 -2.012,-9.16 -2.012,-19.32 v -42.7 H 826.18 v 42.7 c 0,10.65 -0.653,17.21 -1.957,19.68 -1.301,2.5 -3.637,3.74 -7.008,3.74 -3.332,0 -5.649,-1.36 -6.953,-4.1 -1.301,-2.72 -1.953,-9.16 -1.953,-19.32 v -42.7 h -10.723 v 75.06 h 10.723 v -6.76 c 1.468,2.78 3.304,4.89 5.5,6.34 2.214,1.47 4.726,2.21 7.539,2.21 3.386,0 6.207,-0.81 8.461,-2.43 2.25,-1.62 4,-4.08 5.25,-7.37" /><path
         id="path48"
         style="fill:#000000;fill-opacity:1;fill-rule:nonzero;stroke:none"
         d="m 919.621,1883.16 h -3.906 c -6.891,0 -12.082,-1.23 -15.582,-3.68 -3.481,-2.46 -5.223,-6.13 -5.223,-11 0,-4.4 1.305,-7.82 3.91,-10.25 2.606,-2.44 6.227,-3.66 10.864,-3.66 6.496,0 11.605,2.29 15.328,6.87 3.722,4.6 5.601,10.94 5.64,19.04 v 2.68 h -11.031 m 23.539,4.72 v -42.25 h -12.508 v 11.62 c -2.57,-4.58 -5.8,-7.96 -9.691,-10.14 -3.871,-2.17 -8.59,-3.26 -14.156,-3.26 -7.407,0 -13.328,2.1 -17.758,6.31 -4.43,4.22 -6.645,9.87 -6.645,16.95 0,8.19 2.735,14.39 8.207,18.62 5.493,4.25 13.555,6.37 24.184,6.37 h 15.859 v 2.04 c -0.039,6.18 -1.519,10.65 -4.441,13.43 -2.902,2.79 -7.539,4.18 -13.902,4.18 -4.079,0 -8.204,-0.6 -12.371,-1.81 -4.172,-1.21 -8.227,-2.99 -12.176,-5.33 v 12.51 c 4.468,1.78 8.742,3.12 12.816,4.02 4.098,0.89 8.07,1.34 11.926,1.34 6.086,0 11.277,-0.93 15.578,-2.8 4.32,-1.86 7.809,-4.65 10.473,-8.37 1.675,-2.27 2.855,-5.08 3.547,-8.41 0.707,-3.33 1.058,-8.34 1.058,-15.02" /><path
         id="path50"
         style="fill:#000000;fill-opacity:1;fill-rule:nonzero;stroke:none"
         d="m 997.598,1942.13 v -21.44 h 28.592 v -8.94 h -28.592 v -41.88 c 0,-5.69 1.07,-9.67 3.212,-11.92 2.14,-2.25 5.88,-3.38 11.23,-3.38 h 14.15 v -8.94 h -15.39 c -9.41,0 -16.058,1.82 -19.933,5.45 -3.851,3.63 -5.777,9.89 -5.777,18.79 v 41.88 h -19.66 v 8.94 h 19.66 v 21.44 h 12.508" /><path
         id="path52"
         style="fill:#000000;fill-opacity:1;fill-rule:nonzero;stroke:none"
         d="m 1055.61,1920.69 h 32.16 v -66.12 h 25.02 v -8.94 h -62.54 v 8.94 h 25.02 v 57.18 h -19.66 v 8.94 m 19.66,28.59 h 12.5 v -16.08 h -12.5 v 16.08" /><path
         id="path54"
         style="fill:#000000;fill-opacity:1;fill-rule:nonzero;stroke:none"
         d="m 1163.63,1911.75 c -6.46,0 -11.35,-2.41 -14.66,-7.23 -3.31,-4.8 -4.97,-11.92 -4.97,-21.36 0,-9.4 1.66,-16.52 4.97,-21.36 3.31,-4.82 8.2,-7.23 14.66,-7.23 6.5,0 11.4,2.41 14.71,7.23 3.32,4.84 4.97,11.96 4.97,21.36 0,9.44 -1.65,16.56 -4.97,21.36 -3.31,4.82 -8.21,7.23 -14.71,7.23 m 0,10.73 c 10.42,0 18.39,-3.37 23.9,-10.11 5.53,-6.72 8.29,-16.46 8.29,-29.21 0,-12.78 -2.75,-22.54 -8.26,-29.26 -5.49,-6.7 -13.47,-10.05 -23.93,-10.05 -10.43,0 -18.39,3.35 -23.9,10.05 -5.5,6.72 -8.24,16.48 -8.24,29.26 0,12.75 2.74,22.49 8.24,29.21 5.51,6.74 13.47,10.11 23.9,10.11" /><path
         id="path56"
         style="fill:#000000;fill-opacity:1;fill-rule:nonzero;stroke:none"
         d="m 1275.28,1892.13 v -46.5 h -12.51 v 46.5 c 0,6.73 -1.17,11.69 -3.52,14.85 -2.32,3.18 -5.97,4.77 -10.95,4.77 -5.67,0 -10.05,-2.04 -13.12,-6.14 -3.05,-4.07 -4.58,-9.93 -4.58,-17.56 v -42.42 h -12.51 v 75.06 h 12.51 v -11.28 c 2.18,4.28 5.13,7.53 8.85,9.74 3.73,2.22 8.13,3.33 13.21,3.33 7.6,0 13.27,-2.52 17.01,-7.54 3.74,-5.03 5.61,-12.63 5.61,-22.81" /><path
         id="path58"
         style="fill:#000000;fill-opacity:1;fill-rule:nonzero;stroke:none"
         d="m 190.535,1710.47 c 0,9.44 -1.648,16.56 -4.941,21.36 -3.297,4.82 -8.164,7.23 -14.606,7.23 -6.496,0 -11.418,-2.42 -14.769,-7.26 -3.332,-4.82 -4.996,-11.93 -4.996,-21.33 0,-9.36 1.664,-16.47 4.996,-21.33 3.351,-4.84 8.273,-7.26 14.769,-7.26 6.442,0 11.309,2.4 14.606,7.2 3.293,4.82 4.941,11.96 4.941,21.39 m -39.312,27.67 c 2.062,3.74 4.922,6.62 8.57,8.63 3.648,2.01 7.863,3.02 12.648,3.02 9.493,0 16.969,-3.48 22.422,-10.42 5.453,-6.92 8.184,-16.46 8.184,-28.62 0,-12.36 -2.738,-22.05 -8.211,-29.07 -5.473,-7.02 -12.984,-10.52 -22.535,-10.52 -4.692,0 -8.84,0.98 -12.453,2.96 -3.59,1.99 -6.469,4.88 -8.625,8.68 v -9.86 h -12.512 v 103.65 h 12.512 v -38.45" /><path
         id="path60"
         style="fill:#000000;fill-opacity:1;fill-rule:nonzero;stroke:none"
         d="m 250.305,1739.06 c -6.457,0 -11.344,-2.41 -14.66,-7.23 -3.313,-4.8 -4.969,-11.92 -4.969,-21.36 0,-9.4 1.656,-16.52 4.969,-21.36 3.316,-4.82 8.203,-7.23 14.66,-7.23 6.496,0 11.402,2.41 14.715,7.23 3.316,4.84 4.972,11.96 4.972,21.36 0,9.44 -1.656,16.56 -4.972,21.36 -3.313,4.82 -8.219,7.23 -14.715,7.23 m 0,10.73 c 10.425,0 18.39,-3.37 23.902,-10.11 5.527,-6.72 8.293,-16.46 8.293,-29.21 0,-12.79 -2.754,-22.54 -8.266,-29.26 -5.492,-6.7 -13.468,-10.05 -23.929,-10.05 -10.422,0 -18.391,3.35 -23.903,10.05 -5.488,6.72 -8.234,16.47 -8.234,29.26 0,12.75 2.746,22.49 8.234,29.21 5.512,6.74 13.481,10.11 23.903,10.11" /><path
         id="path62"
         style="fill:#000000;fill-opacity:1;fill-rule:nonzero;stroke:none"
         d="M 304.77,1701.51 V 1748 h 12.511 v -46.49 c 0,-6.74 1.172,-11.7 3.516,-14.88 2.363,-3.17 6.012,-4.75 10.945,-4.75 5.735,0 10.117,2.04 13.153,6.11 3.035,4.1 4.55,9.96 4.55,17.6 V 1748 h 12.512 v -75.06 h -12.512 v 11.42 c -2.175,-4.33 -5.144,-7.62 -8.906,-9.85 -3.742,-2.24 -8.117,-3.35 -13.125,-3.35 -7.633,0 -13.316,2.51 -17.059,7.54 -3.722,5.02 -5.585,12.62 -5.585,22.81" /><path
         id="path64"
         style="fill:#000000;fill-opacity:1;fill-rule:nonzero;stroke:none"
         d="m 444.984,1719.43 v -46.49 h -12.507 v 46.49 c 0,6.74 -1.172,11.7 -3.52,14.86 -2.328,3.18 -5.977,4.77 -10.945,4.77 -5.676,0 -10.051,-2.04 -13.125,-6.14 -3.051,-4.08 -4.578,-9.93 -4.578,-17.56 v -42.42 H 387.801 V 1748 h 12.508 v -11.28 c 2.179,4.28 5.129,7.53 8.851,9.74 3.723,2.22 8.125,3.33 13.207,3.33 7.594,0 13.262,-2.52 17.004,-7.54 3.742,-5.03 5.613,-12.63 5.613,-22.82" /><path
         id="path66"
         style="fill:#000000;fill-opacity:1;fill-rule:nonzero;stroke:none"
         d="m 519.078,1738.14 v 38.45 h 12.512 v -103.65 h -12.512 v 9.86 c -2.16,-3.8 -5.043,-6.69 -8.656,-8.68 -3.59,-1.98 -7.734,-2.96 -12.426,-2.96 -9.547,0 -17.058,3.5 -22.531,10.52 -5.473,7.02 -8.211,16.71 -8.211,29.07 0,12.16 2.746,21.7 8.238,28.62 5.508,6.94 13.012,10.42 22.504,10.42 4.75,0 8.926,-1 12.539,-2.99 3.629,-1.98 6.477,-4.86 8.543,-8.66 m -39.312,-27.67 c 0,-9.43 1.644,-16.57 4.941,-21.39 3.293,-4.8 8.16,-7.2 14.602,-7.2 6.441,0 11.347,2.42 14.714,7.26 3.372,4.86 5.055,11.97 5.055,21.33 0,9.4 -1.683,16.51 -5.055,21.33 -3.367,4.84 -8.273,7.26 -14.714,7.26 -6.442,0 -11.309,-2.41 -14.602,-7.23 -3.297,-4.8 -4.941,-11.92 -4.941,-21.36" /><path
         id="path68"
         style="fill:#000000;fill-opacity:1;fill-rule:nonzero;stroke:none"
         d="m 557.434,1748 h 32.164 v -66.12 h 25.019 v -8.94 H 552.07 v 8.94 h 25.02 v 57.18 h -19.656 v 8.94 m 19.656,28.59 h 12.508 v -16.08 H 577.09 v 16.08" /><path
         id="path70"
         style="fill:#000000;fill-opacity:1;fill-rule:nonzero;stroke:none"
         d="m 694.074,1719.43 v -46.49 h -12.511 v 46.49 c 0,6.74 -1.172,11.7 -3.516,14.86 -2.328,3.18 -5.977,4.77 -10.945,4.77 -5.68,0 -10.055,-2.04 -13.125,-6.14 -3.055,-4.08 -4.579,-9.93 -4.579,-17.56 v -42.42 H 636.887 V 1748 h 12.511 v -11.28 c 2.176,4.28 5.125,7.53 8.852,9.74 3.723,2.22 8.125,3.33 13.207,3.33 7.594,0 13.262,-2.52 17.004,-7.54 3.742,-5.03 5.613,-12.63 5.613,-22.82" /><path
         id="path72"
         style="fill:#000000;fill-opacity:1;fill-rule:nonzero;stroke:none"
         d="m 768.168,1711.42 c 0,9.05 -1.641,15.92 -4.914,20.61 -3.258,4.69 -8.016,7.03 -14.27,7.03 -6.535,0 -11.523,-2.34 -14.964,-7.03 -3.446,-4.69 -5.168,-11.56 -5.168,-20.61 0,-9.03 1.73,-15.92 5.195,-20.66 3.461,-4.73 8.488,-7.1 15.078,-7.1 6.16,0 10.871,2.38 14.129,7.13 3.273,4.76 4.914,11.64 4.914,20.63 m 12.508,-32.87 c 0,-11.22 -2.774,-19.73 -8.321,-25.51 -5.527,-5.79 -13.664,-8.69 -24.402,-8.69 -3.539,0 -7.242,0.31 -11.113,0.92 -3.856,0.6 -7.707,1.48 -11.563,2.66 v 12.5 c 4.598,-1.82 8.77,-3.17 12.512,-4.04 3.758,-0.88 7.203,-1.32 10.328,-1.32 7,0 12.094,1.72 15.274,5.17 3.183,3.44 4.777,8.92 4.777,16.42 v 0.55 8.61 c -2.066,-4.34 -4.887,-7.57 -8.461,-9.69 -3.574,-2.13 -7.922,-3.19 -13.039,-3.19 -9.215,0 -16.578,3.49 -22.086,10.45 -5.492,6.96 -8.238,16.27 -8.238,27.95 0,11.71 2.746,21.04 8.238,28 5.508,6.96 12.871,10.45 22.086,10.45 5.082,0 9.379,-0.99 12.898,-2.96 3.52,-1.96 6.387,-4.98 8.602,-9.08 V 1748 h 12.508 v -69.45" /><path
         id="path74"
         style="fill:#000000;fill-opacity:1;fill-rule:nonzero;stroke:none"
         d="m 815.457,1721.2 v -37.54 h 15.02 c 7.464,0 12.781,1.41 15.945,4.22 3.183,2.81 4.773,7.45 4.773,13.91 0,6.66 -1.675,11.56 -5.023,14.68 -3.352,3.15 -8.582,4.73 -15.695,4.73 h -15.02 m 0,39.31 v -28.6 h 14.77 c 6.105,0 10.527,1.19 13.261,3.55 2.758,2.38 4.133,6.22 4.133,11.5 0,4.79 -1.348,8.24 -4.047,10.36 -2.699,2.13 -7.148,3.19 -13.347,3.19 h -14.77 m -14.297,10.72 h 29.317 c 10.07,0 17.824,-2.11 23.261,-6.34 5.453,-4.22 8.18,-10.2 8.18,-17.93 0,-5.84 -1.496,-10.45 -4.496,-13.82 -2.977,-3.37 -7.453,-5.48 -13.43,-6.34 6.703,-0.98 11.961,-3.8 15.778,-8.46 3.816,-4.65 5.722,-10.57 5.722,-17.75 0,-9.13 -2.941,-16.01 -8.824,-20.66 -5.863,-4.66 -14.594,-6.99 -26.191,-6.99 H 801.16 v 98.29" /><path
         id="path76"
         style="fill:#000000;fill-opacity:1;fill-rule:nonzero;stroke:none"
         d="m 914.539,1739.06 c -6.457,0 -11.344,-2.41 -14.656,-7.23 -3.317,-4.8 -4.973,-11.92 -4.973,-21.36 0,-9.4 1.656,-16.52 4.973,-21.36 3.312,-4.82 8.199,-7.23 14.656,-7.23 6.496,0 11.402,2.41 14.715,7.23 3.316,4.84 4.973,11.96 4.973,21.36 0,9.44 -1.657,16.56 -4.973,21.36 -3.313,4.82 -8.219,7.23 -14.715,7.23 m 0,10.73 c 10.426,0 18.395,-3.37 23.902,-10.11 5.532,-6.72 8.293,-16.46 8.293,-29.21 0,-12.79 -2.754,-22.54 -8.265,-29.26 -5.489,-6.7 -13.465,-10.05 -23.93,-10.05 -10.422,0 -18.391,3.35 -23.898,10.05 -5.493,6.72 -8.239,16.47 -8.239,29.26 0,12.75 2.746,22.49 8.239,29.21 5.507,6.74 13.476,10.11 23.898,10.11" /><path
         id="path78"
         style="fill:#000000;fill-opacity:1;fill-rule:nonzero;stroke:none"
         d="m 1031.55,1748 -27.14,-35.91 28.93,-39.15 h -14.07 l -21.7,30.1 -21.64,-30.1 h -14.075 l 28.93,39.15 -27.14,35.91 h 13.82 l 20.105,-27.14 19.97,27.14 h 14.01" /><path
         id="path80"
         style="fill:#000000;fill-opacity:1;fill-rule:nonzero;stroke:none"
         d="m 185.176,1603.9 c -5.996,-10.13 -10.473,-20.22 -13.434,-30.29 -2.957,-10.06 -4.437,-20.19 -4.437,-30.41 0,-10.16 1.48,-20.29 4.437,-30.38 2.961,-10.07 7.438,-20.22 13.434,-30.44 H 174.34 c -6.59,10.58 -11.492,20.87 -14.715,30.89 -3.219,10.01 -4.832,19.99 -4.832,29.93 0,9.9 1.613,19.87 4.832,29.9 3.223,10.06 8.125,20.32 14.715,30.8 h 10.836" /><path
         id="path82"
         style="fill:#000000;fill-opacity:1;fill-rule:nonzero;stroke:none"
         d="m 255.387,1537.78 h -3.91 c -6.887,0 -12.079,-1.23 -15.579,-3.69 -3.48,-2.45 -5.222,-6.12 -5.222,-11 0,-4.39 1.304,-7.8 3.91,-10.25 2.605,-2.43 6.227,-3.65 10.859,-3.65 6.5,0 11.61,2.29 15.332,6.86 3.723,4.61 5.602,10.95 5.641,19.05 v 2.68 h -11.031 m 23.539,4.72 v -42.25 h -12.508 v 11.62 c -2.57,-4.58 -5.801,-7.96 -9.691,-10.14 -3.872,-2.18 -8.59,-3.27 -14.157,-3.27 -7.406,0 -13.328,2.11 -17.757,6.32 -4.43,4.22 -6.645,9.87 -6.645,16.95 0,8.18 2.734,14.4 8.207,18.62 5.492,4.24 13.551,6.36 24.184,6.36 h 15.859 v 2.04 c -0.039,6.18 -1.52,10.66 -4.441,13.43 -2.903,2.8 -7.539,4.19 -13.907,4.19 -4.074,0 -8.199,-0.6 -12.367,-1.81 -4.172,-1.21 -8.23,-2.99 -12.176,-5.33 v 12.5 c 4.469,1.79 8.739,3.13 12.817,4.02 4.097,0.9 8.07,1.34 11.922,1.34 6.089,0 11.281,-0.93 15.582,-2.79 4.32,-1.86 7.808,-4.65 10.472,-8.37 1.676,-2.27 2.856,-5.07 3.543,-8.41 0.711,-3.33 1.063,-8.34 1.063,-15.02" /><path
         id="path84"
         style="fill:#000000;fill-opacity:1;fill-rule:nonzero;stroke:none"
         d="m 356.594,1537.78 c 0,9.44 -1.649,16.56 -4.942,21.36 -3.297,4.82 -8.164,7.23 -14.605,7.23 -6.496,0 -11.418,-2.42 -14.77,-7.26 -3.332,-4.82 -4.996,-11.93 -4.996,-21.33 0,-9.36 1.664,-16.48 4.996,-21.33 3.352,-4.84 8.274,-7.26 14.77,-7.26 6.441,0 11.308,2.4 14.605,7.2 3.293,4.82 4.942,11.95 4.942,21.39 m -39.313,27.67 c 2.067,3.74 4.922,6.62 8.571,8.63 3.648,2.01 7.863,3.01 12.648,3.01 9.496,0 16.969,-3.46 22.422,-10.41 5.453,-6.93 8.183,-16.47 8.183,-28.62 0,-12.36 -2.738,-22.05 -8.21,-29.07 -5.473,-7.02 -12.985,-10.53 -22.536,-10.53 -4.687,0 -8.839,0.99 -12.453,2.97 -3.59,1.99 -6.468,4.88 -8.625,8.68 v -9.86 H 304.77 v 103.65 h 12.511 v -38.45" /><path
         id="path86"
         style="fill:#000000;fill-opacity:1;fill-rule:nonzero;stroke:none"
         d="m 439.625,1573.52 v -12.51 c -3.465,1.79 -6.953,3.13 -10.473,4.02 -3.519,0.9 -7.093,1.34 -10.722,1.34 -5.492,0 -9.586,-0.87 -12.285,-2.62 -2.7,-1.73 -4.047,-4.37 -4.047,-7.93 0,-3.22 0.992,-5.63 2.984,-7.23 1.992,-1.59 6.945,-3.13 14.856,-4.64 l 4.777,-0.95 c 6.066,-1.17 10.664,-3.52 13.793,-7.04 3.125,-3.5 4.691,-8.05 4.691,-13.67 0,-7.47 -2.59,-13.31 -7.765,-17.51 -5.157,-4.21 -12.321,-6.32 -21.5,-6.32 -3.629,0 -7.434,0.45 -11.418,1.34 -3.985,0.9 -8.293,2.24 -12.93,4.03 v 12.51 c 4.469,-2.39 8.742,-4.18 12.816,-5.36 4.098,-1.19 7.969,-1.79 11.618,-1.79 5.285,0 9.382,1.1 12.285,3.29 2.922,2.22 4.383,5.31 4.383,9.27 0,5.72 -5.297,9.66 -15.887,11.84 l -0.531,0.14 -4.469,0.95 c -7.016,1.36 -12.145,3.66 -15.383,6.9 -3.223,3.26 -4.832,7.69 -4.832,13.29 0,7.09 2.402,12.56 7.203,16.42 4.824,3.87 11.691,5.8 20.609,5.8 3.965,0 7.77,-0.29 11.418,-0.89 3.668,-0.59 7.27,-1.49 10.809,-2.68" /><path
         id="path88"
         style="fill:#000000;fill-opacity:1;fill-rule:nonzero;stroke:none"
         d="m 483.34,1548.5 v -37.52 h 15.019 c 7.465,0 12.782,1.4 15.946,4.21 3.183,2.81 4.773,7.45 4.773,13.91 0,6.66 -1.676,11.56 -5.023,14.69 -3.352,3.14 -8.582,4.71 -15.696,4.71 H 483.34 m 0,39.32 v -28.59 h 14.769 c 6.106,0 10.528,1.18 13.262,3.54 2.758,2.38 4.133,6.22 4.133,11.5 0,4.79 -1.348,8.24 -4.047,10.36 -2.699,2.13 -7.148,3.19 -13.348,3.19 H 483.34 m -14.297,10.72 h 29.316 c 10.071,0 17.825,-2.11 23.262,-6.34 5.453,-4.22 8.18,-10.2 8.18,-17.93 0,-5.84 -1.496,-10.45 -4.496,-13.82 -2.977,-3.36 -7.453,-5.48 -13.43,-6.34 6.703,-0.98 11.961,-3.8 15.777,-8.45 3.817,-4.66 5.723,-10.58 5.723,-17.77 0,-9.12 -2.941,-16 -8.824,-20.66 -5.863,-4.65 -14.594,-6.98 -26.192,-6.98 h -29.316 v 98.29" /><path
         id="path90"
         style="fill:#000000;fill-opacity:1;fill-rule:nonzero;stroke:none"
         d="m 582.422,1566.37 c -6.457,0 -11.344,-2.41 -14.656,-7.23 -3.317,-4.8 -4.973,-11.92 -4.973,-21.36 0,-9.4 1.656,-16.52 4.973,-21.36 3.312,-4.82 8.199,-7.23 14.656,-7.23 6.496,0 11.402,2.41 14.715,7.23 3.316,4.84 4.972,11.96 4.972,21.36 0,9.44 -1.656,16.56 -4.972,21.36 -3.313,4.82 -8.219,7.23 -14.715,7.23 m 0,10.72 c 10.426,0 18.394,-3.36 23.902,-10.1 5.528,-6.72 8.293,-16.46 8.293,-29.21 0,-12.79 -2.754,-22.54 -8.265,-29.26 -5.493,-6.7 -13.469,-10.06 -23.93,-10.06 -10.422,0 -18.391,3.36 -23.902,10.06 -5.489,6.72 -8.235,16.47 -8.235,29.26 0,12.75 2.746,22.49 8.235,29.21 5.511,6.74 13.48,10.1 23.902,10.1" /><path
         id="path92"
         style="fill:#000000;fill-opacity:1;fill-rule:nonzero;stroke:none"
         d="m 636.887,1528.82 v 46.49 h 12.511 v -46.49 c 0,-6.74 1.172,-11.7 3.516,-14.89 2.363,-3.16 6.016,-4.74 10.945,-4.74 5.735,0 10.118,2.04 13.153,6.11 3.035,4.1 4.551,9.96 4.551,17.59 v 42.42 h 12.511 v -75.06 h -12.511 v 11.42 c -2.176,-4.33 -5.145,-7.62 -8.907,-9.85 -3.742,-2.24 -8.117,-3.36 -13.125,-3.36 -7.629,0 -13.316,2.52 -17.058,7.54 -3.723,5.03 -5.586,12.63 -5.586,22.82" /><path
         id="path94"
         style="fill:#000000;fill-opacity:1;fill-rule:nonzero;stroke:none"
         d="m 777.102,1546.74 v -46.49 h -12.508 v 46.49 c 0,6.74 -1.172,11.69 -3.52,14.86 -2.328,3.18 -5.976,4.77 -10.945,4.77 -5.676,0 -10.051,-2.05 -13.125,-6.14 -3.051,-4.08 -4.578,-9.93 -4.578,-17.56 v -42.42 h -12.508 v 75.06 h 12.508 v -11.28 c 2.179,4.28 5.129,7.53 8.851,9.74 3.723,2.22 8.125,3.32 13.207,3.32 7.598,0 13.266,-2.51 17.004,-7.54 3.742,-5.02 5.614,-12.62 5.614,-22.81" /><path
         id="path96"
         style="fill:#000000;fill-opacity:1;fill-rule:nonzero;stroke:none"
         d="m 851.195,1565.45 v 38.45 h 12.512 v -103.65 h -12.512 v 9.86 c -2.156,-3.8 -5.043,-6.69 -8.656,-8.68 -3.59,-1.98 -7.734,-2.97 -12.426,-2.97 -9.547,0 -17.058,3.51 -22.531,10.53 -5.473,7.02 -8.211,16.71 -8.211,29.07 0,12.15 2.746,21.69 8.238,28.62 5.512,6.95 13.012,10.41 22.504,10.41 4.75,0 8.926,-0.99 12.539,-2.98 3.629,-1.98 6.477,-4.86 8.543,-8.66 m -39.312,-27.67 c 0,-9.44 1.644,-16.57 4.941,-21.39 3.293,-4.8 8.164,-7.2 14.602,-7.2 6.441,0 11.347,2.42 14.715,7.26 3.371,4.85 5.054,11.97 5.054,21.33 0,9.4 -1.683,16.51 -5.054,21.33 -3.368,4.84 -8.274,7.26 -14.715,7.26 -6.438,0 -11.309,-2.41 -14.602,-7.23 -3.297,-4.8 -4.941,-11.92 -4.941,-21.36" /><path
         id="path98"
         style="fill:#000000;fill-opacity:1;fill-rule:nonzero;stroke:none"
         d="m 889.551,1575.31 h 32.164 v -66.12 h 25.019 v -8.94 h -62.546 v 8.94 h 25.019 v 57.18 h -19.656 v 8.94 m 19.656,28.59 h 12.508 v -16.08 h -12.508 v 16.08" /><path
         id="path100"
         style="fill:#000000;fill-opacity:1;fill-rule:nonzero;stroke:none"
         d="m 1026.19,1546.74 v -46.49 h -12.51 v 46.49 c 0,6.74 -1.17,11.69 -3.52,14.86 -2.32,3.18 -5.97,4.77 -10.941,4.77 -5.68,0 -10.055,-2.05 -13.125,-6.14 -3.055,-4.08 -4.578,-9.93 -4.578,-17.56 v -42.42 h -12.512 v 75.06 h 12.512 v -11.28 c 2.175,4.28 5.129,7.53 8.851,9.74 3.723,2.22 8.125,3.32 13.203,3.32 7.6,0 13.27,-2.51 17.01,-7.54 3.74,-5.02 5.61,-12.62 5.61,-22.81" /><path
         id="path102"
         style="fill:#000000;fill-opacity:1;fill-rule:nonzero;stroke:none"
         d="m 1100.29,1538.73 c 0,9.05 -1.64,15.91 -4.92,20.61 -3.26,4.69 -8.01,7.03 -14.27,7.03 -6.53,0 -11.52,-2.34 -14.96,-7.03 -3.45,-4.7 -5.17,-11.56 -5.17,-20.61 0,-9.03 1.73,-15.92 5.19,-20.66 3.47,-4.73 8.49,-7.09 15.08,-7.09 6.16,0 10.87,2.37 14.13,7.11 3.28,4.77 4.92,11.65 4.92,20.64 m 12.5,-32.87 c 0,-11.22 -2.77,-19.73 -8.32,-25.52 -5.52,-5.79 -13.66,-8.68 -24.4,-8.68 -3.54,0 -7.24,0.31 -11.11,0.92 -3.86,0.6 -7.71,1.48 -11.57,2.65 v 12.51 c 4.6,-1.82 8.77,-3.17 12.52,-4.04 3.75,-0.88 7.2,-1.32 10.32,-1.32 7,0 12.1,1.73 15.28,5.17 3.18,3.44 4.78,8.91 4.78,16.41 v 0.56 8.61 c -2.07,-4.34 -4.89,-7.57 -8.47,-9.69 -3.57,-2.13 -7.92,-3.19 -13.03,-3.19 -9.22,0 -16.58,3.48 -22.09,10.45 -5.49,6.96 -8.24,16.27 -8.24,27.94 0,11.72 2.75,21.05 8.24,28.01 5.51,6.96 12.87,10.44 22.09,10.44 5.08,0 9.38,-0.98 12.89,-2.95 3.52,-1.96 6.39,-4.98 8.61,-9.08 v 10.25 h 12.5 v -69.45" /><path
         id="path104"
         style="fill:#000000;fill-opacity:1;fill-rule:nonzero;stroke:none"
         d="m 1147.57,1548.5 v -37.52 h 15.02 c 7.47,0 12.79,1.4 15.95,4.21 3.18,2.81 4.77,7.45 4.77,13.91 0,6.66 -1.67,11.56 -5.02,14.69 -3.35,3.14 -8.58,4.71 -15.7,4.71 h -15.02 m 0,39.32 v -28.59 h 14.77 c 6.11,0 10.53,1.18 13.27,3.54 2.75,2.38 4.13,6.22 4.13,11.5 0,4.79 -1.35,8.24 -4.05,10.36 -2.7,2.13 -7.15,3.19 -13.35,3.19 h -14.77 m -14.29,10.72 h 29.31 c 10.08,0 17.83,-2.11 23.27,-6.34 5.45,-4.22 8.18,-10.2 8.18,-17.93 0,-5.84 -1.5,-10.45 -4.5,-13.82 -2.98,-3.36 -7.45,-5.48 -13.43,-6.34 6.7,-0.98 11.96,-3.8 15.78,-8.45 3.81,-4.66 5.72,-10.58 5.72,-17.77 0,-9.12 -2.94,-16 -8.82,-20.66 -5.87,-4.65 -14.6,-6.98 -26.2,-6.98 h -29.31 v 98.29" /><path
         id="path106"
         style="fill:#000000;fill-opacity:1;fill-rule:nonzero;stroke:none"
         d="m 1246.66,1566.37 c -6.46,0 -11.35,-2.41 -14.66,-7.23 -3.32,-4.8 -4.97,-11.92 -4.97,-21.36 0,-9.4 1.65,-16.52 4.97,-21.36 3.31,-4.82 8.2,-7.23 14.66,-7.23 6.5,0 11.4,2.41 14.72,7.23 3.31,4.84 4.96,11.96 4.96,21.36 0,9.44 -1.65,16.56 -4.96,21.36 -3.32,4.82 -8.22,7.23 -14.72,7.23 m 0,10.72 c 10.42,0 18.39,-3.36 23.9,-10.1 5.53,-6.72 8.29,-16.46 8.29,-29.21 0,-12.79 -2.75,-22.54 -8.26,-29.26 -5.49,-6.7 -13.47,-10.06 -23.93,-10.06 -10.43,0 -18.39,3.36 -23.9,10.06 -5.49,6.72 -8.24,16.47 -8.24,29.26 0,12.75 2.75,22.49 8.24,29.21 5.51,6.74 13.47,10.1 23.9,10.1" /><path
         id="path108"
         style="fill:#000000;fill-opacity:1;fill-rule:nonzero;stroke:none"
         d="m 1363.67,1575.31 -27.14,-35.91 28.93,-39.15 h -14.08 l -21.69,30.1 -21.64,-30.1 h -14.08 l 28.93,39.15 -27.14,35.91 h 13.82 l 20.11,-27.14 19.96,27.14 h 14.02" /><path
         id="path110"
         style="fill:#000000;fill-opacity:1;fill-rule:nonzero;stroke:none"
         d="m 1394.88,1603.9 h 10.83 c 6.59,-10.48 11.49,-20.74 14.71,-30.8 3.22,-10.03 4.83,-20 4.83,-29.9 0,-9.98 -1.61,-20 -4.83,-30.05 -3.22,-10.03 -8.12,-20.29 -14.71,-30.77 h -10.83 c 5.99,10.32 10.46,20.51 13.42,30.58 2.97,10.09 4.45,20.17 4.45,30.24 0,10.12 -1.48,20.23 -4.45,30.32 -2.96,10.09 -7.43,20.22 -13.42,30.38" /><path
         id="path112"
         style="fill:#000000;fill-opacity:1;fill-rule:nonzero;stroke:none"
         d="m 158.367,1347.22 h 16.086 v -19.66 h -16.086 v 19.66" /><path
         id="path114"
         style="fill:#000000;fill-opacity:1;fill-rule:nonzero;stroke:none"
         d="m 241.398,1347.22 h 16.082 v -19.66 h -16.082 v 19.66" /><path
         id="path116"
         style="fill:#000000;fill-opacity:1;fill-rule:nonzero;stroke:none"
         d="m 324.426,1347.22 h 16.086 v -19.66 h -16.086 v 19.66" /><path
         id="path118"
         style="fill:#ffffff;fill-opacity:1;fill-rule:nonzero;stroke:none"
         d="m 10.793,1176.46 h 1520.76 v 86.3438 H 10.793 Z" /><path
         id="path120"
         style="fill:none;stroke:#000000;stroke-width:21.58639908;stroke-linecap:butt;stroke-linejoin:miter;stroke-miterlimit:10;stroke-dasharray:none;stroke-opacity:1"
         d="m 10.793,1176.46 h 1520.76 v 86.3438 H 10.793 Z" /><path
         id="path122"
         style="fill:#ffffff;fill-opacity:1;fill-rule:nonzero;stroke:none"
         d="m 3464.61,1996.74 h 1204.52 v 302.211 H 3464.61 Z" /><path
         id="path124"
         style="fill:none;stroke:#000000;stroke-width:21.58639908;stroke-linecap:butt;stroke-linejoin:miter;stroke-miterlimit:10;stroke-dasharray:none;stroke-opacity:1"
         d="m 3464.61,1996.74 h 1204.52 v 302.211 H 3464.61 Z" /><path
         id="path126"
         style="fill:#000000;fill-opacity:1;fill-rule:nonzero;stroke:none"
         d="m 3645.46,2103.73 c -7.93,-3.87 -16.17,-6.78 -24.71,-8.73 -8.53,-1.94 -17.34,-2.91 -26.42,-2.91 -20.53,0 -36.8,5.77 -48.81,17.31 -12,11.56 -18.01,27.23 -18.01,46.99 0,19.98 6.07,35.7 18.21,47.17 12.14,11.46 28.75,17.2 49.84,17.2 8.15,0 15.96,-0.78 23.43,-2.35 7.46,-1.54 14.5,-3.84 21.11,-6.89 v -24.72 c -6.87,3.6 -13.71,6.28 -20.5,8.04 -6.79,1.79 -13.6,2.69 -20.41,2.69 -12.64,0 -22.39,-3.56 -29.23,-10.67 -6.85,-7.09 -10.28,-17.25 -10.28,-30.47 0,-13.12 3.43,-23.25 10.3,-30.37 6.89,-7.13 16.67,-10.7 29.35,-10.7 3.44,0 6.63,0.2 9.58,0.59 2.96,0.39 5.61,1 7.95,1.84 v 22.59 h -19.65 v 21.45 h 48.25 v -58.06" /><path
         id="path128"
         style="fill:#000000;fill-opacity:1;fill-rule:nonzero;stroke:none"
         d="m 3742.58,2161.79 c -2.61,1.21 -5.19,2.1 -7.76,2.67 -2.57,0.6 -5.15,0.9 -7.74,0.9 -7.63,0 -13.51,-2.46 -17.65,-7.37 -4.11,-4.92 -6.16,-11.95 -6.16,-21.11 v -43 h -28.6 v 91.14 h 28.6 v -14.3 c 3.81,6.22 8.19,10.75 13.14,13.6 4.96,2.85 10.89,4.27 17.79,4.27 0.99,0 2.06,-0.06 3.21,-0.2 1.18,-0.12 2.87,-0.41 5.09,-0.86 l 0.08,-25.74" /><path
         id="path130"
         style="fill:#000000;fill-opacity:1;fill-rule:nonzero;stroke:none"
         d="m 3803.78,2167.14 c -6.74,0 -11.88,-2.29 -15.41,-6.89 -3.52,-4.6 -5.28,-11.23 -5.28,-19.91 0,-8.67 1.76,-15.31 5.28,-19.91 3.53,-4.59 8.67,-6.89 15.41,-6.89 6.61,0 11.66,2.3 15.16,6.89 3.5,4.6 5.25,11.24 5.25,19.91 0,8.68 -1.75,15.31 -5.25,19.91 -3.5,4.6 -8.55,6.89 -15.16,6.89 m -0.03,21.45 c 15.95,0 28.41,-4.27 37.36,-12.82 8.98,-8.52 13.46,-20.33 13.46,-35.43 0,-15.1 -4.48,-26.92 -13.46,-35.46 -8.95,-8.53 -21.41,-12.79 -37.36,-12.79 -15.99,0 -28.5,4.26 -37.53,12.79 -9.01,8.54 -13.51,20.36 -13.51,35.46 0,15.1 4.5,26.91 13.51,35.43 9.03,8.55 21.54,12.82 37.53,12.82" /><path
         id="path132"
         style="fill:#000000;fill-opacity:1;fill-rule:nonzero;stroke:none"
         d="m 3878.47,2130.73 v 54.29 h 28.59 v -8.88 c 0,-4.82 -0.02,-10.87 -0.08,-18.15 -0.06,-7.28 -0.09,-12.13 -0.09,-14.55 0,-7.15 0.21,-12.3 0.62,-15.47 0.41,-3.15 1.11,-5.43 2.1,-6.84 1.28,-1.86 2.95,-3.29 5.02,-4.3 2.08,-1.01 4.47,-1.51 7.15,-1.51 6.55,0 11.69,2.27 15.41,6.82 3.74,4.56 5.61,10.88 5.61,18.98 v 43.9 h 28.6 v -91.14 h -28.6 v 14.3 c -4.52,-5.52 -9.31,-9.57 -14.37,-12.18 -5.05,-2.61 -10.62,-3.91 -16.7,-3.91 -10.84,0 -19.09,3.3 -24.77,9.89 -5.66,6.59 -8.49,16.17 -8.49,28.75" /><path
         id="path134"
         style="fill:#000000;fill-opacity:1;fill-rule:nonzero;stroke:none"
         d="m 4029.99,2108.18 v -50.04 h -28.59 v 126.88 h 28.59 v -12.51 c 4.08,5.51 8.59,9.56 13.54,12.17 4.95,2.61 10.65,3.91 17.09,3.91 11.39,0 20.75,-4.5 28.06,-13.51 7.34,-8.99 11,-20.57 11,-34.74 0,-14.16 -3.66,-25.75 -11,-34.76 -7.31,-8.99 -16.67,-13.49 -28.06,-13.49 -6.44,0 -12.14,1.3 -17.09,3.91 -4.95,2.61 -9.46,6.66 -13.54,12.18 m 19.74,58.96 c -6.37,0 -11.25,-2.3 -14.66,-6.92 -3.39,-4.59 -5.08,-11.22 -5.08,-19.88 0,-8.66 1.69,-15.29 5.08,-19.91 3.41,-4.59 8.29,-6.89 14.66,-6.89 6.37,0 11.22,2.28 14.55,6.86 3.35,4.58 5.02,11.23 5.02,19.94 0,8.71 -1.67,15.36 -5.02,19.94 -3.33,4.58 -8.18,6.86 -14.55,6.86" /><path
         id="path136"
         style="fill:#000000;fill-opacity:1;fill-rule:nonzero;stroke:none"
         d="m 4126.65,2217.18 h 34.12 l 46.3,-84.57 v 84.57 h 28.59 v -123.3 h -34.12 l -46.3,84.57 v -84.57 h -28.59 v 123.3" /><path
         id="path138"
         style="fill:#000000;fill-opacity:1;fill-rule:nonzero;stroke:none"
         d="m 4313.28,2167.14 c -6.74,0 -11.88,-2.29 -15.41,-6.89 -3.52,-4.6 -5.28,-11.23 -5.28,-19.91 0,-8.67 1.76,-15.31 5.28,-19.91 3.53,-4.59 8.67,-6.89 15.41,-6.89 6.61,0 11.66,2.3 15.16,6.89 3.5,4.6 5.25,11.24 5.25,19.91 0,8.68 -1.75,15.31 -5.25,19.91 -3.5,4.6 -8.55,6.89 -15.16,6.89 m -0.03,21.45 c 15.95,0 28.41,-4.27 37.36,-12.82 8.98,-8.52 13.46,-20.33 13.46,-35.43 0,-15.1 -4.48,-26.92 -13.46,-35.46 -8.95,-8.53 -21.41,-12.79 -37.36,-12.79 -15.99,0 -28.5,4.26 -37.53,12.79 -9.01,8.54 -13.51,20.36 -13.51,35.46 0,15.1 4.5,26.91 13.51,35.43 9.03,8.55 21.54,12.82 37.53,12.82" /><path
         id="path140"
         style="fill:#000000;fill-opacity:1;fill-rule:nonzero;stroke:none"
         d="m 4450.52,2172.51 v 48.25 h 28.59 v -126.88 h -28.59 v 14.3 c -4.08,-5.57 -8.57,-9.65 -13.49,-12.23 -4.91,-2.57 -10.6,-3.86 -17.06,-3.86 -11.41,0 -20.79,4.5 -28.15,13.49 -7.33,9.01 -11,20.6 -11,34.76 0,14.17 3.67,25.75 11,34.74 7.36,9.01 16.74,13.51 28.15,13.51 6.4,0 12.07,-1.3 17,-3.91 4.96,-2.61 9.47,-6.66 13.55,-12.17 m -19.69,-58.97 c 6.38,0 11.26,2.28 14.63,6.86 3.37,4.58 5.06,11.23 5.06,19.94 0,8.71 -1.69,15.36 -5.06,19.94 -3.37,4.58 -8.25,6.86 -14.63,6.86 -6.35,0 -11.2,-2.28 -14.58,-6.86 -3.36,-4.58 -5.05,-11.23 -5.05,-19.94 0,-8.71 1.69,-15.36 5.05,-19.94 3.38,-4.58 8.23,-6.86 14.58,-6.86" /><path
         id="path142"
         style="fill:#000000;fill-opacity:1;fill-rule:nonzero;stroke:none"
         d="m 4602.57,2141.43 v -8.24 h -69.69 c 0.73,-7.15 3.28,-12.51 7.65,-16.08 4.4,-3.57 10.53,-5.36 18.4,-5.36 6.37,0 12.87,0.88 19.52,2.65 6.66,1.79 13.51,4.48 20.55,8.07 v -23.23 c -6.98,-2.36 -13.96,-4.15 -20.94,-5.36 -6.98,-1.19 -13.96,-1.79 -20.94,-1.79 -16.7,0 -29.68,4.23 -38.96,12.68 -9.25,8.45 -13.87,20.31 -13.87,35.57 0,14.98 4.5,26.77 13.51,35.35 9.03,8.6 21.46,12.9 37.28,12.9 14.39,0 25.9,-4.28 34.54,-12.84 8.64,-8.57 12.95,-20 12.95,-34.32 m -28.59,9.63 c 0,5.37 -1.74,9.68 -5.22,12.96 -3.46,3.28 -8,4.91 -13.62,4.91 -6.07,0 -11.01,-1.53 -14.8,-4.61 -3.8,-3.07 -6.16,-7.49 -7.1,-13.26 h 40.74" /><path
         id="path144"
         style="fill:#ffffff;fill-opacity:1;fill-rule:nonzero;stroke:none"
         d="m 3464.61,1910.39 h 1204.52 v 86.3438 H 3464.61 Z" /><path
         id="path146"
         style="fill:none;stroke:#000000;stroke-width:21.58639908;stroke-linecap:butt;stroke-linejoin:miter;stroke-miterlimit:10;stroke-dasharray:none;stroke-opacity:1"
         d="m 3464.61,1910.39 h 1204.52 v 86.3438 H 3464.61 Z" /><path
         id="path148"
         style="fill:#ffffff;fill-opacity:1;fill-rule:nonzero;stroke:none"
         d="m 3464.61,1824.05 h 1204.52 v 86.3477 H 3464.61 Z" /><path
         id="path150"
         style="fill:none;stroke:#000000;stroke-width:21.58639908;stroke-linecap:butt;stroke-linejoin:miter;stroke-miterlimit:10;stroke-dasharray:none;stroke-opacity:1"
         d="m 3464.61,1824.05 h 1204.52 v 86.3477 H 3464.61 Z" /><path
         id="path152"
         style="fill:none;stroke:#000000;stroke-width:21.58639908;stroke-linecap:butt;stroke-linejoin:miter;stroke-miterlimit:10;stroke-dasharray:none;stroke-opacity:1"
         d="M 3464.61,2147.84 H 2137.05 v 0 h -605.5" /><path
         id="path154"
         style="fill:#000000;fill-opacity:1;fill-rule:nonzero;stroke:none"
         d="m 2947.73,2200.87 v -38.45 h -12.5 v 103.65 h 12.5 v -9.86 c 2.16,3.8 5.05,6.69 8.66,8.66 3.61,1.99 7.77,2.99 12.48,2.99 9.57,0 17.07,-3.5 22.51,-10.5 5.45,-7 8.18,-16.7 8.18,-29.09 0,-12.16 -2.74,-21.71 -8.21,-28.65 -5.46,-6.93 -12.95,-10.39 -22.48,-10.39 -4.8,0 -9.01,0.98 -12.62,2.96 -3.61,1.99 -6.45,4.88 -8.52,8.68 m 39.32,27.67 c 0,9.44 -1.64,16.56 -4.91,21.37 -3.28,4.82 -8.15,7.23 -14.61,7.23 -6.49,0 -11.42,-2.42 -14.77,-7.26 -3.35,-4.83 -5.03,-11.93 -5.03,-21.34 0,-9.36 1.68,-16.47 5.03,-21.33 3.35,-4.84 8.28,-7.26 14.77,-7.26 6.46,0 11.33,2.4 14.61,7.21 3.27,4.82 4.91,11.95 4.91,21.38" /><path
         id="path156"
         style="fill:#000000;fill-opacity:1;fill-rule:nonzero;stroke:none"
         d="m 3051.9,2228.54 h -3.91 c -6.88,0 -12.08,-1.22 -15.58,-3.68 -3.48,-2.46 -5.22,-6.13 -5.22,-11 0,-4.4 1.3,-7.81 3.91,-10.25 2.6,-2.44 6.22,-3.66 10.86,-3.66 6.5,0 11.61,2.29 15.33,6.87 3.72,4.6 5.6,10.95 5.64,19.04 v 2.68 h -11.03 m 23.54,4.72 v -42.24 h -12.51 v 11.61 c -2.57,-4.58 -5.8,-7.95 -9.69,-10.13 -3.87,-2.18 -8.59,-3.27 -14.15,-3.27 -7.41,0 -13.33,2.1 -17.77,6.31 -4.43,4.23 -6.64,9.87 -6.64,16.95 0,8.19 2.74,14.4 8.21,18.62 5.49,4.25 13.55,6.37 24.18,6.37 h 15.86 v 2.04 c -0.04,6.18 -1.52,10.66 -4.44,13.43 -2.9,2.79 -7.54,4.19 -13.9,4.19 -4.08,0 -8.2,-0.61 -12.38,-1.82 -4.16,-1.21 -8.22,-2.98 -12.17,-5.33 v 12.51 c 4.47,1.79 8.74,3.13 12.82,4.02 4.09,0.89 8.07,1.34 11.92,1.34 6.09,0 11.28,-0.93 15.58,-2.79 4.32,-1.86 7.81,-4.66 10.47,-8.38 1.68,-2.27 2.86,-5.07 3.55,-8.4 0.71,-3.34 1.06,-8.34 1.06,-15.03" /><path
         id="path158"
         style="fill:#000000;fill-opacity:1;fill-rule:nonzero;stroke:none"
         d="m 3163.83,2249.99 c -2.55,2.49 -5.14,4.31 -7.76,5.44 -2.63,1.14 -5.51,1.71 -8.66,1.71 -7.43,0 -13.1,-2.51 -17.03,-7.51 -3.91,-4.99 -5.86,-12.22 -5.86,-21.67 v -36.94 h -12.51 v 75.05 h 12.51 v -15.11 c 1.99,5.46 5.04,9.64 9.16,12.54 4.11,2.91 8.98,4.36 14.62,4.36 2.95,0 5.68,-0.44 8.22,-1.31 2.55,-0.86 4.98,-2.21 7.31,-4.05 v -12.51" /><path
         id="path160"
         style="fill:#000000;fill-opacity:1;fill-rule:nonzero;stroke:none"
         d="m 3246.86,2232.34 v -5.58 h -54.06 v -0.42 c 0,-8.41 2.13,-14.92 6.4,-19.52 4.26,-4.58 10.27,-6.87 18.03,-6.87 3.93,0 8.04,0.59 12.32,1.76 4.3,1.19 8.88,2.99 13.74,5.39 v -12.51 c -4.64,-1.79 -9.11,-3.13 -13.41,-4.02 -4.28,-0.89 -8.43,-1.34 -12.45,-1.34 -11.5,0 -20.5,3.48 -26.97,10.44 -6.48,6.98 -9.72,16.61 -9.72,28.87 0,11.96 3.21,21.5 9.63,28.62 6.42,7.13 14.98,10.7 25.67,10.7 9.54,0 17.06,-3.18 22.55,-9.52 5.52,-6.35 8.27,-15.02 8.27,-26 m -12.51,3.35 c -0.19,7 -1.92,12.33 -5.19,15.97 -3.28,3.65 -7.99,5.48 -14.13,5.48 -6.01,0 -10.97,-1.9 -14.86,-5.7 -3.89,-3.8 -6.2,-9.07 -6.92,-15.83 l 41.1,0.08" /><path
         id="path162"
         style="fill:#000000;fill-opacity:1;fill-rule:nonzero;stroke:none"
         d="m 3324.53,2237.51 v -46.49 h -12.51 v 46.49 c 0,6.74 -1.17,11.69 -3.52,14.85 -2.32,3.19 -5.98,4.78 -10.95,4.78 -5.67,0 -10.05,-2.05 -13.12,-6.15 -3.05,-4.07 -4.58,-9.93 -4.58,-17.56 v -42.41 h -12.51 v 75.05 h 12.51 v -11.28 c 2.18,4.28 5.13,7.53 8.85,9.75 3.73,2.21 8.13,3.32 13.21,3.32 7.6,0 13.27,-2.51 17,-7.54 3.75,-5.03 5.62,-12.63 5.62,-22.81" /><path
         id="path164"
         style="fill:#000000;fill-opacity:1;fill-rule:nonzero;stroke:none"
         d="m 3378.96,2287.52 v -21.45 h 28.6 v -8.93 h -28.6 v -41.89 c 0,-5.69 1.08,-9.67 3.22,-11.92 2.14,-2.25 5.88,-3.38 11.22,-3.38 h 14.16 v -8.93 h -15.39 c -9.42,0 -16.06,1.81 -19.94,5.44 -3.85,3.63 -5.77,9.9 -5.77,18.79 v 41.89 h -19.66 v 8.93 h 19.66 v 21.45 h 12.5" /><path
         id="path166"
         style="fill:#000000;fill-opacity:1;fill-rule:nonzero;stroke:none"
         d="m 3121.18,2068.34 c 0,2.43 0.85,4.54 2.57,6.3 1.73,1.77 3.79,2.66 6.2,2.66 2.49,0 4.63,-0.89 6.42,-2.66 1.78,-1.76 2.68,-3.87 2.68,-6.3 0,-2.48 -0.89,-4.59 -2.66,-6.32 -1.75,-1.73 -3.9,-2.59 -6.44,-2.59 -2.5,0 -4.59,0.84 -6.26,2.51 -1.68,1.69 -2.51,3.83 -2.51,6.4 m 8.9,39.34 c -5.99,0 -10.47,-3.32 -13.43,-9.94 -2.94,-6.63 -4.41,-16.73 -4.41,-30.3 0,-13.53 1.47,-23.61 4.41,-30.24 2.96,-6.63 7.44,-9.94 13.43,-9.94 6.03,0 10.52,3.31 13.46,9.94 2.96,6.63 4.44,16.71 4.44,30.24 0,13.57 -1.48,23.67 -4.44,30.3 -2.94,6.62 -7.43,9.94 -13.46,9.94 m 0,10.72 c 10.6,0 18.61,-4.3 24.05,-12.9 5.43,-8.58 8.15,-21.27 8.15,-38.06 0,-16.75 -2.72,-29.43 -8.15,-38.03 -5.44,-8.58 -13.45,-12.87 -24.05,-12.87 -10.61,0 -18.62,4.29 -24.04,12.87 -5.4,8.6 -8.09,21.28 -8.09,38.03 0,16.79 2.69,29.48 8.09,38.06 5.42,8.6 13.43,12.9 24.04,12.9" /><path
         id="path168"
         style="fill:#000000;fill-opacity:1;fill-rule:nonzero;stroke:none"
         d="m 3204.21,2037.98 h 16.08 v -19.66 h -16.08 v 19.66" /><path
         id="path170"
         style="fill:#000000;fill-opacity:1;fill-rule:nonzero;stroke:none"
         d="m 3287.23,2037.98 h 16.09 v -19.66 h -16.09 v 19.66" /><path
         id="path172"
         style="fill:#000000;fill-opacity:1;fill-rule:nonzero;stroke:none"
         d="m 3355.97,2029.05 h 21.44 v 76.84 l -23.23,-5.36 v 10.72 l 23.43,5.36 h 14.1 v -87.56 h 21.44 v -10.73 h -57.18 v 10.73" /><path
         id="path174"
         style="fill:#000000;fill-opacity:1;fill-rule:nonzero;stroke:none"
         d="m 1646.21,2273.72 -24.44,-13.01 24.44,-13.1 -3.89,-6.56 -22.92,13.63 v -24.35 h -7.15 v 24.35 l -22.92,-13.63 -3.88,6.56 24.43,13.1 -24.43,13.01 3.88,6.65 22.92,-13.63 v 24.35 h 7.15 v -24.35 l 22.92,13.63 3.89,-6.65" /><path
         id="path176"
         style="fill:none;stroke:#000000;stroke-width:21.58639908;stroke-linecap:butt;stroke-linejoin:miter;stroke-miterlimit:10;stroke-dasharray:none;stroke-opacity:1"
         d="M 771.172,2495.77 V 2698.3 H 4066.87 v -388.5" /><path
         id="path178"
         style="fill:#ffffff;fill-opacity:1;fill-rule:evenodd;stroke:none"
         d="m 684.828,2495.77 86.344,-172.69 86.348,172.69" /><path
         id="path180"
         style="fill:none;stroke:#000000;stroke-width:21.58639908;stroke-linecap:butt;stroke-linejoin:miter;stroke-miterlimit:10;stroke-dasharray:none;stroke-opacity:1"
         d="m 684.828,2495.77 86.344,-172.69 86.348,172.69 z" /><path
         id="path182"
         style="fill:#ffffff;fill-opacity:1;fill-rule:nonzero;stroke:none"
         d="m 226.656,269.828 h 1567.17 V 572.039 H 226.656 Z" /><path
         id="path184"
         style="fill:none;stroke:#000000;stroke-width:21.58639908;stroke-linecap:butt;stroke-linejoin:miter;stroke-miterlimit:10;stroke-dasharray:none;stroke-opacity:1"
         d="m 226.656,269.828 h 1567.17 V 572.039 H 226.656 Z" /><path
         id="path186"
         style="fill:#000000;fill-opacity:1;fill-rule:nonzero;stroke:none"
         d="m 407.504,376.824 c -7.93,-3.871 -16.168,-6.785 -24.711,-8.738 -8.527,-1.938 -17.332,-2.906 -26.418,-2.906 -20.531,0 -36.801,5.773 -48.809,17.312 -12.003,11.563 -18.007,27.227 -18.007,46.996 0,19.973 6.066,35.692 18.203,47.16 12.14,11.465 28.754,17.2 49.843,17.2 8.153,0 15.961,-0.782 23.426,-2.344 7.465,-1.547 14.504,-3.844 21.11,-6.899 v -24.71 c -6.868,3.593 -13.7,6.273 -20.493,8.043 -6.796,1.785 -13.601,2.679 -20.414,2.679 -12.64,0 -22.382,-3.554 -29.234,-10.668 -6.852,-7.09 -10.273,-17.246 -10.273,-30.461 0,-13.125 3.433,-23.25 10.3,-30.383 6.887,-7.128 16.672,-10.691 29.348,-10.691 3.445,0 6.637,0.195 9.578,0.586 2.957,0.391 5.613,1.004 7.957,1.844 v 22.586 h -19.656 v 21.445 h 48.25 v -58.051" /><path
         id="path188"
         style="fill:#000000;fill-opacity:1;fill-rule:nonzero;stroke:none"
         d="m 527.855,414.52 v -8.239 H 458.16 c 0.727,-7.144 3.278,-12.508 7.653,-16.082 4.394,-3.574 10.527,-5.359 18.402,-5.359 6.363,0 12.871,0.883 19.515,2.652 6.665,1.785 13.516,4.477 20.551,8.071 v -23.235 c -6.98,-2.363 -13.961,-4.148 -20.941,-5.359 -6.981,-1.192 -13.961,-1.789 -20.942,-1.789 -16.699,0 -29.683,4.226 -38.953,12.679 -9.25,8.45 -13.875,20.309 -13.875,35.571 0,14.988 4.504,26.769 13.512,35.351 9.031,8.602 21.457,12.899 37.277,12.899 14.391,0 25.903,-4.282 34.539,-12.844 8.641,-8.563 12.957,-20 12.957,-34.316 m -28.593,9.632 c 0,5.364 -1.739,9.68 -5.219,12.957 -3.465,3.278 -8.004,4.914 -13.629,4.914 -6.066,0 -11,-1.535 -14.797,-4.605 -3.797,-3.074 -6.16,-7.492 -7.094,-13.266 h 40.739" /><path
         id="path190"
         style="fill:#000000;fill-opacity:1;fill-rule:nonzero;stroke:none"
         d="m 597.637,440.238 c -6.739,0 -11.879,-2.3 -15.414,-6.898 -3.52,-4.598 -5.278,-11.235 -5.278,-19.91 0,-8.672 1.758,-15.309 5.278,-19.907 3.535,-4.597 8.675,-6.898 15.414,-6.898 6.605,0 11.66,2.301 15.16,6.898 3.5,4.598 5.25,11.235 5.25,19.907 0,8.675 -1.75,15.312 -5.25,19.91 -3.5,4.598 -8.555,6.898 -15.16,6.898 m -0.032,21.442 c 15.954,0 28.411,-4.27 37.364,-12.817 8.972,-8.523 13.457,-20.336 13.457,-35.433 0,-15.094 -4.485,-26.914 -13.457,-35.461 -8.953,-8.524 -21.41,-12.789 -37.364,-12.789 -15.988,0 -28.496,4.265 -37.527,12.789 -9.008,8.547 -13.512,20.367 -13.512,35.461 0,15.097 4.504,26.91 13.512,35.433 9.031,8.547 21.539,12.817 37.527,12.817" /><path
         id="path192"
         style="fill:#000000;fill-opacity:1;fill-rule:nonzero;stroke:none"
         d="m 756.625,443.617 c 3.703,5.879 8.098,10.36 13.18,13.43 5.097,3.09 10.703,4.633 16.808,4.633 10.5,0 18.492,-3.34 23.985,-10.024 5.511,-6.664 8.265,-16.363 8.265,-29.093 V 366.969 H 790.27 v 47.605 c 0.058,0.711 0.093,1.446 0.113,2.207 0.035,0.766 0.055,1.852 0.055,3.266 0,6.461 -0.985,11.144 -2.958,14.047 -1.957,2.902 -5.121,4.355 -9.496,4.355 -5.714,0 -10.136,-2.289 -13.261,-6.867 -3.11,-4.562 -4.719,-11.16 -4.832,-19.797 v -44.816 h -28.594 v 47.605 c 0,10.11 -0.902,16.617 -2.707,19.52 -1.785,2.902 -4.981,4.355 -9.578,4.355 -5.77,0 -10.227,-2.297 -13.375,-6.894 -3.145,-4.602 -4.719,-11.16 -4.719,-19.688 v -44.898 h -28.594 v 91.136 h 28.594 v -12.507 c 3.613,5.324 7.746,9.336 12.398,12.035 4.672,2.699 9.821,4.047 15.442,4.047 6.347,0 11.949,-1.582 16.808,-4.746 4.86,-3.164 8.543,-7.602 11.059,-13.317" /><path
         id="path194"
         style="fill:#000000;fill-opacity:1;fill-rule:nonzero;stroke:none"
         d="m 943.004,414.52 v -8.239 h -69.695 c 0.726,-7.144 3.277,-12.508 7.652,-16.082 4.391,-3.574 10.523,-5.359 18.398,-5.359 6.368,0 12.871,0.883 19.52,2.652 6.664,1.785 13.512,4.477 20.551,8.071 v -23.235 c -6.981,-2.363 -13.961,-4.148 -20.942,-5.359 -6.98,-1.192 -13.961,-1.789 -20.941,-1.789 -16.699,0 -29.684,4.226 -38.953,12.679 -9.254,8.45 -13.879,20.309 -13.879,35.571 0,14.988 4.504,26.769 13.515,35.351 9.028,8.602 21.454,12.899 37.278,12.899 14.387,0 25.902,-4.282 34.539,-12.844 8.637,-8.563 12.957,-20 12.957,-34.316 m -28.594,9.632 c 0,5.364 -1.742,9.68 -5.222,12.957 -3.461,3.278 -8.004,4.914 -13.625,4.914 -6.071,0 -11,-1.535 -14.801,-4.605 -3.797,-3.074 -6.16,-7.492 -7.09,-13.266 h 40.738" /><path
         id="path196"
         style="fill:#000000;fill-opacity:1;fill-rule:nonzero;stroke:none"
         d="m 999.238,484.914 v -26.809 h 30.382 v -21.441 h -30.382 v -37.695 c 0,-4.133 0.872,-6.926 2.622,-8.379 1.75,-1.453 5.23,-2.176 10.42,-2.176 h 15.55 v -21.445 h -25.97 c -11.333,0 -19.376,2.418 -24.122,7.258 -4.726,4.859 -7.09,13.105 -7.09,24.742 v 37.695 h -14.296 v 21.441 h 14.296 v 26.809 h 28.59" /><path
         id="path198"
         style="fill:#000000;fill-opacity:1;fill-rule:nonzero;stroke:none"
         d="m 1119.26,434.875 c -2.61,1.211 -5.2,2.105 -7.76,2.68 -2.57,0.597 -5.15,0.894 -7.74,0.894 -7.63,0 -13.51,-2.457 -17.65,-7.371 -4.11,-4.914 -6.17,-11.949 -6.17,-21.109 v -43 h -28.59 v 91.136 h 28.59 v -14.292 c 3.82,6.214 8.2,10.75 13.15,13.597 4.96,2.848 10.89,4.27 17.79,4.27 0.99,0 2.06,-0.063 3.21,-0.196 1.18,-0.129 2.87,-0.418 5.09,-0.863 l 0.08,-25.746" /><path
         id="path200"
         style="fill:#000000;fill-opacity:1;fill-rule:nonzero;stroke:none"
         d="m 1124.03,458.105 h 29.15 l 24.52,-61.847 20.82,61.847 h 29.16 l -38.34,-99.066 c -3.86,-10.312 -8.35,-17.527 -13.49,-21.641 -5.14,-4.113 -11.91,-6.171 -20.33,-6.171 h -16.83 v 19.656 h 9.1 c 4.95,0 8.55,0.754 10.8,2.262 2.26,1.492 4.01,4.179 5.25,8.07 l 0.81,2.515 -40.62,94.375" /><path
         id="path202"
         style="fill:#000000;fill-opacity:1;fill-rule:nonzero;stroke:none"
         d="m 1251,490.273 h 34.13 l 46.29,-84.578 v 84.578 h 28.6 V 366.969 h -34.13 l -46.29,84.578 V 366.969 H 1251 v 123.304" /><path
         id="path204"
         style="fill:#000000;fill-opacity:1;fill-rule:nonzero;stroke:none"
         d="m 1437.63,440.238 c -6.74,0 -11.87,-2.3 -15.41,-6.898 -3.52,-4.598 -5.28,-11.235 -5.28,-19.91 0,-8.672 1.76,-15.309 5.28,-19.907 3.54,-4.597 8.67,-6.898 15.41,-6.898 6.61,0 11.67,2.301 15.17,6.898 3.49,4.598 5.24,11.235 5.24,19.907 0,8.675 -1.75,15.312 -5.24,19.91 -3.5,4.598 -8.56,6.898 -15.17,6.898 m -0.02,21.442 c 15.95,0 28.4,-4.27 37.35,-12.817 8.98,-8.523 13.47,-20.336 13.47,-35.433 0,-15.094 -4.49,-26.914 -13.47,-35.461 -8.95,-8.524 -21.4,-12.789 -37.35,-12.789 -16,0 -28.5,4.265 -37.53,12.789 -9.01,8.547 -13.52,20.367 -13.52,35.461 0,15.097 4.51,26.91 13.52,35.433 9.03,8.547 21.53,12.817 37.53,12.817" /><path
         id="path206"
         style="fill:#000000;fill-opacity:1;fill-rule:nonzero;stroke:none"
         d="m 1574.87,445.598 v 48.25 h 28.59 V 366.969 h -28.59 v 14.297 c -4.08,-5.567 -8.57,-9.645 -13.49,-12.231 -4.91,-2.57 -10.6,-3.855 -17.06,-3.855 -11.41,0 -20.79,4.496 -28.14,13.488 -7.34,9.008 -11,20.598 -11,34.762 0,14.168 3.66,25.746 11,34.738 7.35,9.008 16.73,13.512 28.14,13.512 6.41,0 12.07,-1.301 17.01,-3.907 4.95,-2.605 9.46,-6.664 13.54,-12.175 m -19.69,-58.973 c 6.39,0 11.27,2.289 14.64,6.871 3.37,4.578 5.05,11.223 5.05,19.934 0,8.715 -1.68,15.359 -5.05,19.937 -3.37,4.578 -8.25,6.871 -14.64,6.871 -6.34,0 -11.2,-2.293 -14.57,-6.871 -3.37,-4.578 -5.06,-11.222 -5.06,-19.937 0,-8.711 1.69,-15.356 5.06,-19.934 3.37,-4.582 8.23,-6.871 14.57,-6.871" /><path
         id="path208"
         style="fill:#000000;fill-opacity:1;fill-rule:nonzero;stroke:none"
         d="m 1726.93,414.52 v -8.239 h -69.7 c 0.73,-7.144 3.28,-12.508 7.66,-16.082 4.39,-3.574 10.52,-5.359 18.4,-5.359 6.36,0 12.87,0.883 19.51,2.652 6.67,1.785 13.52,4.477 20.56,8.071 v -23.235 c -6.98,-2.363 -13.97,-4.148 -20.95,-5.359 -6.98,-1.192 -13.96,-1.789 -20.94,-1.789 -16.7,0 -29.68,4.226 -38.95,12.679 -9.25,8.45 -13.88,20.309 -13.88,35.571 0,14.988 4.51,26.769 13.52,35.351 9.02,8.602 21.45,12.899 37.27,12.899 14.39,0 25.91,-4.282 34.54,-12.844 8.64,-8.563 12.96,-20 12.96,-34.316 m -28.59,9.632 c 0,5.364 -1.74,9.68 -5.23,12.957 -3.46,3.278 -8,4.914 -13.62,4.914 -6.07,0 -11,-1.535 -14.8,-4.605 -3.8,-3.074 -6.16,-7.492 -7.09,-13.266 h 40.74" /><path
         id="path210"
         style="fill:#ffffff;fill-opacity:1;fill-rule:nonzero;stroke:none"
         d="m 226.656,183.484 h 1567.17 v 86.3438 H 226.656 Z" /><path
         id="path212"
         style="fill:none;stroke:#000000;stroke-width:21.58639908;stroke-linecap:butt;stroke-linejoin:miter;stroke-miterlimit:10;stroke-dasharray:none;stroke-opacity:1"
         d="m 226.656,183.484 h 1567.17 v 86.3438 H 226.656 Z" /><path
         id="path214"
         style="fill:#ffffff;fill-opacity:1;fill-rule:nonzero;stroke:none"
         d="m 226.656,97.1367 h 1567.17 v 86.3477 H 226.656 Z" /><path
         id="path216"
         style="fill:none;stroke:#000000;stroke-width:21.58639908;stroke-linecap:butt;stroke-linejoin:miter;stroke-miterlimit:10;stroke-dasharray:none;stroke-opacity:1"
         d="m 226.656,97.1367 h 1567.17 v 86.3477 H 226.656 Z" /><path
         id="path218"
         style="fill:none;stroke:#000000;stroke-width:21.58639908;stroke-linecap:butt;stroke-linejoin:miter;stroke-miterlimit:10;stroke-dasharray:none;stroke-opacity:1"
         d="M 771.172,979.633 V 787.902 H 1010.24 V 572.039" /><path
         id="path220"
         style="fill:#ffffff;fill-opacity:1;fill-rule:evenodd;stroke:none"
         d="M 857.52,979.633 771.172,1152.32 684.828,979.633" /><path
         id="path222"
         style="fill:none;stroke:#000000;stroke-width:21.58639908;stroke-linecap:butt;stroke-linejoin:miter;stroke-miterlimit:10;stroke-dasharray:none;stroke-opacity:1"
         d="M 857.52,979.633 771.172,1152.32 684.828,979.633 Z" /><path
         id="path224"
         style="fill:#ffffff;fill-opacity:1;fill-rule:nonzero;stroke:none"
         d="m 3464.61,485.691 h 855.898 V 787.902 H 3464.61 Z" /><path
         id="path226"
         style="fill:none;stroke:#000000;stroke-width:21.58639908;stroke-linecap:butt;stroke-linejoin:miter;stroke-miterlimit:10;stroke-dasharray:none;stroke-opacity:1"
         d="m 3464.61,485.691 h 855.898 V 787.902 H 3464.61 Z" /><path
         id="path228"
         style="fill:#000000;fill-opacity:1;fill-rule:nonzero;stroke:none"
         d="m 3651.5,706.137 h 39.14 l 28.68,-66.285 28.84,66.285 h 39.15 V 582.832 h -28.59 v 90.023 l -29.01,-66.792 h -20.61 l -29.01,66.792 v -90.023 h -28.59 v 123.305" /><path
         id="path230"
         style="fill:#000000;fill-opacity:1;fill-rule:nonzero;stroke:none"
         d="m 3912.3,630.383 v -8.235 h -69.69 c 0.72,-7.148 3.27,-12.511 7.65,-16.085 4.39,-3.575 10.52,-5.36 18.4,-5.36 6.36,0 12.87,0.883 19.52,2.652 6.66,1.786 13.51,4.477 20.55,8.071 v -23.235 c -6.98,-2.363 -13.96,-4.148 -20.94,-5.359 -6.99,-1.191 -13.97,-1.789 -20.95,-1.789 -16.7,0 -29.68,4.227 -38.95,12.68 -9.25,8.449 -13.88,20.308 -13.88,35.574 0,14.984 4.51,26.766 13.52,35.348 9.02,8.601 21.45,12.902 37.27,12.902 14.39,0 25.91,-4.285 34.54,-12.848 8.64,-8.562 12.96,-20 12.96,-34.316 m -28.59,9.633 c 0,5.363 -1.74,9.679 -5.23,12.957 -3.46,3.277 -8,4.914 -13.62,4.914 -6.07,0 -11,-1.535 -14.8,-4.606 -3.8,-3.074 -6.16,-7.492 -7.09,-13.265 h 40.74" /><path
         id="path232"
         style="fill:#000000;fill-opacity:1;fill-rule:nonzero;stroke:none"
         d="m 4011.43,672.184 v -21.446 c -6.37,2.383 -12.51,4.172 -18.43,5.364 -5.9,1.191 -11.48,1.785 -16.73,1.785 -5.64,0 -9.83,-0.668 -12.56,-2.008 -2.74,-1.344 -4.11,-3.399 -4.11,-6.172 0,-2.254 1.05,-3.984 3.16,-5.195 2.12,-1.192 5.91,-2.074 11.36,-2.653 l 5.31,-0.726 c 14.72,-1.934 24.62,-5.117 29.71,-9.547 5.1,-4.414 7.65,-11.34 7.65,-20.777 0,-9.903 -3.62,-17.34 -10.86,-22.309 -7.25,-4.969 -18.05,-7.457 -32.42,-7.457 -6.09,0 -12.39,0.598 -18.91,1.789 -6.49,1.191 -13.17,2.977 -20.02,5.359 v 21.446 c 6,-2.977 12.15,-5.211 18.46,-6.699 6.31,-1.493 12.71,-2.235 19.21,-2.235 5.88,0 10.3,0.809 13.27,2.43 2.97,1.617 4.46,4.027 4.46,7.23 0,2.68 -1.03,4.672 -3.1,5.977 -2.04,1.32 -6.13,2.344 -12.25,3.07 l -5.31,0.672 c -13.5,1.617 -22.96,4.625 -28.4,9.016 -5.42,4.394 -8.12,11.058 -8.12,19.996 0,9.64 3.39,16.789 10.19,21.441 6.79,4.672 17.21,7.012 31.24,7.012 5.53,0 11.33,-0.438 17.4,-1.313 6.07,-0.859 12.67,-2.207 19.8,-4.05" /><path
         id="path234"
         style="fill:#000000;fill-opacity:1;fill-rule:nonzero;stroke:none"
         d="m 4133.52,638.426 v -55.594 h -28.59 v 42.387 c 0,7.984 -0.2,13.469 -0.59,16.445 -0.37,2.996 -1.02,5.203 -1.95,6.617 -1.23,1.899 -2.89,3.379 -5,4.442 -2.1,1.058 -4.5,1.59 -7.18,1.59 -6.53,0 -11.67,-2.356 -15.41,-7.063 -3.74,-4.691 -5.61,-11.199 -5.61,-19.52 v -44.898 h -28.59 v 126.879 h 28.59 v -48.25 c 4.52,5.512 9.33,9.57 14.41,12.176 5.08,2.605 10.69,3.91 16.83,3.91 10.84,0 19.06,-3.344 24.66,-10.027 5.62,-6.665 8.43,-16.36 8.43,-29.094" /><path
         id="path236"
         style="fill:#ffffff;fill-opacity:1;fill-rule:nonzero;stroke:none"
         d="m 3464.61,97.1367 h 855.898 v 388.555 H 3464.61 Z" /><path
         id="path238"
         style="fill:none;stroke:#000000;stroke-width:21.58639908;stroke-linecap:butt;stroke-linejoin:miter;stroke-miterlimit:10;stroke-dasharray:none;stroke-opacity:1"
         d="m 3464.61,97.1367 h 855.898 v 388.555 H 3464.61 Z" /><path
         id="path240"
         style="fill:#000000;fill-opacity:1;fill-rule:nonzero;stroke:none"
         d="m 3587.17,409.645 h 12.56 l 21.36,-62.993 21.42,62.993 h 12.57 l -26.17,-75.055 h -15.58 l -26.16,75.055" /><path
         id="path242"
         style="fill:#000000;fill-opacity:1;fill-rule:nonzero;stroke:none"
         d="m 3738.11,375.914 v -5.586 h -54.06 v -0.418 c 0,-8.414 2.13,-14.918 6.39,-19.519 4.26,-4.578 10.28,-6.868 18.04,-6.868 3.93,0 8.03,0.586 12.31,1.758 4.3,1.192 8.88,2.989 13.74,5.391 v -12.508 c -4.63,-1.789 -9.1,-3.129 -13.4,-4.023 -4.28,-0.891 -8.43,-1.34 -12.45,-1.34 -11.51,0 -20.5,3.48 -26.98,10.445 -6.48,6.981 -9.72,16.602 -9.72,28.871 0,11.949 3.22,21.488 9.64,28.621 6.42,7.129 14.97,10.692 25.66,10.692 9.55,0 17.07,-3.172 22.56,-9.52 5.51,-6.347 8.27,-15.012 8.27,-25.996 m -12.51,3.352 c -0.19,7 -1.92,12.32 -5.2,15.968 -3.27,3.649 -7.98,5.473 -14.13,5.473 -6.01,0 -10.96,-1.898 -14.85,-5.695 -3.89,-3.797 -6.2,-9.074 -6.92,-15.832 l 41.1,0.086" /><path
         id="path244"
         style="fill:#000000;fill-opacity:1;fill-rule:nonzero;stroke:none"
         d="m 3821.14,393.563 c -2.55,2.492 -5.14,4.308 -7.77,5.441 -2.62,1.137 -5.51,1.703 -8.66,1.703 -7.42,0 -13.1,-2.5 -17.03,-7.508 -3.91,-4.992 -5.86,-12.211 -5.86,-21.668 V 334.59 h -12.51 v 75.055 h 12.51 v -15.106 c 1.99,5.453 5.04,9.633 9.16,12.535 4.11,2.906 8.99,4.356 14.63,4.356 2.94,0 5.68,-0.438 8.21,-1.313 2.55,-0.855 4.99,-2.203 7.32,-4.047 v -12.507" /><path
         id="path246"
         style="fill:#000000;fill-opacity:1;fill-rule:nonzero;stroke:none"
         d="m 3870.21,431.09 v -21.445 h 28.59 v -8.938 h -28.59 v -41.883 c 0,-5.695 1.07,-9.668 3.21,-11.922 2.14,-2.254 5.88,-3.379 11.23,-3.379 h 14.15 v -8.933 h -15.38 c -9.42,0 -16.06,1.812 -19.94,5.445 -3.85,3.629 -5.78,9.891 -5.78,18.789 v 41.883 h -19.66 v 8.938 h 19.66 v 21.445 h 12.51" /><path
         id="path248"
         style="fill:#000000;fill-opacity:1;fill-rule:nonzero;stroke:none"
         d="m 3928.22,409.645 h 32.17 v -66.122 h 25.02 v -8.933 h -62.55 v 8.933 h 25.02 v 57.184 h -19.66 v 8.938 m 19.66,28.593 h 12.51 v -16.086 h -12.51 v 16.086" /><path
         id="path250"
         style="fill:#000000;fill-opacity:1;fill-rule:nonzero;stroke:none"
         d="m 4064.86,338.164 c -3.25,-1.789 -6.61,-3.129 -10.08,-4.023 -3.44,-0.891 -6.97,-1.34 -10.58,-1.34 -11.45,0 -20.4,3.472 -26.86,10.414 -6.44,6.965 -9.66,16.598 -9.66,28.902 0,12.305 3.22,21.926 9.66,28.871 6.46,6.961 15.41,10.442 26.86,10.442 3.55,0 7.03,-0.586 10.41,-1.758 3.41,-1.152 6.83,-2.949 10.25,-5.391 v -12.508 c -3.23,3.145 -6.48,5.418 -9.74,6.813 -3.26,1.414 -6.94,2.121 -11.06,2.121 -7.67,0 -13.57,-2.473 -17.7,-7.426 -4.12,-4.933 -6.17,-11.988 -6.17,-21.164 0,-9.14 2.06,-16.195 6.2,-21.168 4.15,-4.949 10.04,-7.426 17.67,-7.426 4.24,0 8.05,0.579 11.42,1.731 3.37,1.172 6.5,2.98 9.38,5.418 v -12.508" /><path
         id="path252"
         style="fill:#000000;fill-opacity:1;fill-rule:nonzero;stroke:none"
         d="m 4153.25,375.914 v -5.586 h -54.05 v -0.418 c 0,-8.414 2.13,-14.918 6.39,-19.519 4.26,-4.578 10.27,-6.868 18.04,-6.868 3.92,0 8.03,0.586 12.31,1.758 4.3,1.192 8.88,2.989 13.74,5.391 v -12.508 c -4.64,-1.789 -9.1,-3.129 -13.4,-4.023 -4.28,-0.891 -8.44,-1.34 -12.46,-1.34 -11.5,0 -20.49,3.48 -26.97,10.445 -6.48,6.981 -9.72,16.602 -9.72,28.871 0,11.949 3.21,21.488 9.64,28.621 6.42,7.129 14.97,10.692 25.66,10.692 9.55,0 17.07,-3.172 22.56,-9.52 5.51,-6.347 8.26,-15.012 8.26,-25.996 m -12.51,3.352 c -0.18,7 -1.91,12.32 -5.19,15.968 -3.28,3.649 -7.99,5.473 -14.13,5.473 -6.01,0 -10.96,-1.898 -14.85,-5.695 -3.89,-3.797 -6.2,-9.074 -6.93,-15.832 l 41.1,0.086" /><path
         id="path254"
         style="fill:#000000;fill-opacity:1;fill-rule:nonzero;stroke:none"
         d="m 4225.56,407.855 v -12.507 c -3.46,1.789 -6.95,3.129 -10.47,4.019 -3.52,0.895 -7.09,1.34 -10.72,1.34 -5.49,0 -9.59,-0.871 -12.29,-2.621 -2.7,-1.734 -4.05,-4.375 -4.05,-7.934 0,-3.218 1,-5.629 2.99,-7.23 1.99,-1.582 6.94,-3.125 14.86,-4.633 l 4.77,-0.953 c 6.07,-1.172 10.67,-3.516 13.8,-7.035 3.12,-3.5 4.68,-8.059 4.68,-13.68 0,-7.465 -2.58,-13.301 -7.76,-17.508 -5.16,-4.207 -12.32,-6.312 -21.5,-6.312 -3.63,0 -7.44,0.449 -11.42,1.34 -3.98,0.894 -8.29,2.234 -12.93,4.023 v 12.508 c 4.47,-2.383 8.74,-4.168 12.82,-5.359 4.09,-1.192 7.97,-1.79 11.62,-1.79 5.28,0 9.38,1.098 12.28,3.297 2.92,2.215 4.39,5.305 4.39,9.27 0,5.715 -5.3,9.66 -15.89,11.84 l -0.53,0.136 -4.47,0.95 c -7.02,1.359 -12.15,3.66 -15.38,6.898 -3.23,3.258 -4.84,7.688 -4.84,13.289 0,7.094 2.41,12.567 7.21,16.422 4.82,3.871 11.69,5.805 20.61,5.805 3.96,0 7.77,-0.297 11.41,-0.891 3.67,-0.598 7.27,-1.492 10.81,-2.684" /><path
         id="path256"
         style="fill:#000000;fill-opacity:1;fill-rule:nonzero;stroke:none"
         d="m 3596.11,236.953 h 32.16 v -66.121 h 25.02 v -8.934 h -62.55 v 8.934 h 25.02 v 57.188 h -19.65 v 8.933 m 19.65,28.594 h 12.51 v -16.086 h -12.51 v 16.086" /><path
         id="path258"
         style="fill:#000000;fill-opacity:1;fill-rule:nonzero;stroke:none"
         d="m 3732.75,208.391 v -46.493 h -12.52 v 46.493 c 0,6.738 -1.17,11.687 -3.51,14.851 -2.33,3.184 -5.98,4.778 -10.95,4.778 -5.68,0 -10.05,-2.051 -13.12,-6.145 -3.06,-4.078 -4.58,-9.93 -4.58,-17.562 v -42.415 h -12.51 v 75.055 h 12.51 v -11.281 c 2.18,4.281 5.13,7.531 8.85,9.746 3.72,2.215 8.13,3.324 13.21,3.324 7.59,0 13.26,-2.515 17,-7.539 3.75,-5.027 5.62,-12.633 5.62,-22.812" /><path
         id="path260"
         style="fill:#000000;fill-opacity:1;fill-rule:nonzero;stroke:none"
         d="m 3806.84,227.098 v 38.449 h 12.51 V 161.898 h -12.51 v 9.856 c -2.16,-3.797 -5.05,-6.691 -8.66,-8.684 -3.59,-1.972 -7.73,-2.961 -12.42,-2.961 -9.55,0 -17.06,3.512 -22.54,10.528 -5.47,7.019 -8.2,16.707 -8.2,29.066 0,12.156 2.74,21.699 8.23,28.621 5.51,6.946 13.01,10.418 22.51,10.418 4.74,0 8.92,-0.996 12.53,-2.988 3.64,-1.973 6.48,-4.859 8.55,-8.656 m -39.32,-27.672 c 0,-9.438 1.65,-16.567 4.94,-21.391 3.3,-4.801 8.17,-7.203 14.61,-7.203 6.44,0 11.34,2.422 14.72,7.262 3.36,4.859 5.05,11.969 5.05,21.332 0,9.402 -1.69,16.512 -5.05,21.332 -3.38,4.84 -8.28,7.262 -14.72,7.262 -6.44,0 -11.31,-2.411 -14.61,-7.235 -3.29,-4.801 -4.94,-11.922 -4.94,-21.359" /><path
         id="path262"
         style="fill:#000000;fill-opacity:1;fill-rule:nonzero;stroke:none"
         d="m 3845.19,236.953 h 32.17 v -66.121 h 25.02 v -8.934 h -62.55 v 8.934 h 25.02 v 57.188 h -19.66 v 8.933 m 19.66,28.594 h 12.51 v -16.086 h -12.51 v 16.086" /><path
         id="path264"
         style="fill:#000000;fill-opacity:1;fill-rule:nonzero;stroke:none"
         d="m 3981.83,165.473 c -3.26,-1.789 -6.62,-3.129 -10.08,-4.024 -3.44,-0.89 -6.97,-1.34 -10.58,-1.34 -11.45,0 -20.4,3.473 -26.86,10.418 -6.44,6.961 -9.66,16.594 -9.66,28.899 0,12.304 3.22,21.929 9.66,28.871 6.46,6.961 15.41,10.445 26.86,10.445 3.56,0 7.03,-0.59 10.42,-1.762 3.4,-1.152 6.82,-2.949 10.24,-5.386 v -12.512 c -3.24,3.148 -6.48,5.418 -9.74,6.813 -3.26,1.418 -6.95,2.125 -11.06,2.125 -7.67,0 -13.57,-2.477 -17.7,-7.43 -4.12,-4.934 -6.17,-11.988 -6.17,-21.164 0,-9.141 2.06,-16.196 6.2,-21.164 4.15,-4.953 10.04,-7.43 17.67,-7.43 4.24,0 8.05,0.578 11.42,1.731 3.37,1.175 6.5,2.98 9.38,5.417 v -12.507" /><path
         id="path266"
         style="fill:#000000;fill-opacity:1;fill-rule:nonzero;stroke:none"
         d="m 4070.22,203.223 v -5.586 h -54.06 v -0.418 c 0,-8.414 2.14,-14.918 6.4,-19.516 4.26,-4.582 10.28,-6.871 18.04,-6.871 3.93,0 8.03,0.586 12.31,1.762 4.3,1.191 8.88,2.984 13.74,5.386 v -12.507 c -4.63,-1.789 -9.1,-3.129 -13.4,-4.024 -4.29,-0.89 -8.44,-1.34 -12.46,-1.34 -11.5,0 -20.49,3.481 -26.97,10.446 -6.48,6.98 -9.72,16.605 -9.72,28.871 0,11.949 3.21,21.492 9.64,28.621 6.42,7.129 14.97,10.695 25.66,10.695 9.55,0 17.07,-3.176 22.56,-9.523 5.51,-6.348 8.26,-15.012 8.26,-25.996 m -12.51,3.351 c -0.18,7 -1.91,12.324 -5.19,15.973 -3.27,3.648 -7.98,5.473 -14.13,5.473 -6.01,0 -10.96,-1.899 -14.85,-5.7 -3.89,-3.797 -6.2,-9.074 -6.93,-15.832 l 41.1,0.086" /><path
         id="path268"
         style="fill:#000000;fill-opacity:1;fill-rule:nonzero;stroke:none"
         d="m 4142.53,235.168 v -12.512 c -3.46,1.789 -6.95,3.129 -10.47,4.024 -3.52,0.89 -7.09,1.34 -10.72,1.34 -5.49,0 -9.59,-0.875 -12.29,-2.625 -2.7,-1.731 -4.05,-4.375 -4.05,-7.93 0,-3.223 1,-5.633 2.99,-7.235 1.99,-1.582 6.94,-3.125 14.85,-4.632 l 4.78,-0.95 c 6.07,-1.175 10.67,-3.519 13.79,-7.039 3.13,-3.5 4.7,-8.058 4.7,-13.679 0,-7.465 -2.59,-13.301 -7.77,-17.508 -5.15,-4.207 -12.32,-6.313 -21.5,-6.313 -3.63,0 -7.43,0.45 -11.42,1.34 -3.98,0.895 -8.29,2.235 -12.93,4.024 v 12.507 c 4.47,-2.382 8.74,-4.167 12.82,-5.359 4.1,-1.191 7.97,-1.789 11.62,-1.789 5.28,0 9.38,1.098 12.28,3.297 2.92,2.215 4.38,5.305 4.38,9.269 0,5.715 -5.29,9.661 -15.88,11.84 l -0.53,0.137 -4.47,0.953 c -7.02,1.356 -12.15,3.656 -15.39,6.895 -3.21,3.257 -4.83,7.687 -4.83,13.293 0,7.089 2.4,12.562 7.21,16.418 4.82,3.871 11.69,5.808 20.6,5.808 3.97,0 7.78,-0.301 11.43,-0.894 3.66,-0.598 7.26,-1.489 10.8,-2.68" /><path
         id="path270"
         style="fill:#ffffff;fill-opacity:1;fill-rule:nonzero;stroke:none"
         d="m 3464.61,10.793 h 855.898 V 97.1368 H 3464.61 Z" /><path
         id="path272"
         style="fill:none;stroke:#000000;stroke-width:21.58639908;stroke-linecap:butt;stroke-linejoin:miter;stroke-miterlimit:10;stroke-dasharray:none;stroke-opacity:1"
         d="m 3464.61,10.793 h 855.898 V 97.1368 H 3464.61 Z" /><path
         id="path274"
         style="fill:none;stroke:#000000;stroke-width:21.58639908;stroke-linecap:butt;stroke-linejoin:miter;stroke-miterlimit:10;stroke-dasharray:none;stroke-opacity:1"
         d="m 1793.83,420.934 h 754.44 v 215.863 h 868.07" /><path
         id="path276"
         style="fill:none;stroke:#000000;stroke-width:21.58639908;stroke-linecap:butt;stroke-linejoin:miter;stroke-miterlimit:10;stroke-dasharray:none;stroke-opacity:1"
         d="m 3267.79,550.453 172.69,86.344 -172.69,86.348" /><path
         id="path278"
         style="fill:#000000;fill-opacity:1;fill-rule:nonzero;stroke:none"
         d="m 1908.48,546.813 -24.43,-13.012 24.43,-13.094 -3.88,-6.562 -22.92,13.625 v -24.348 h -7.15 v 24.348 l -22.93,-13.625 -3.88,6.562 24.44,13.094 -24.44,13.012 3.88,6.644 22.93,-13.625 v 24.348 h 7.15 v -24.348 l 22.92,13.625 3.88,-6.644" /><path
         id="path280"
         style="fill:#000000;fill-opacity:1;fill-rule:nonzero;stroke:none"
         d="m 3183.51,690.691 h 21.45 v 76.844 l -23.24,-5.359 v 10.722 l 23.43,5.36 h 14.1 v -87.567 h 21.45 v -10.722 h -57.19 v 10.722" /><path
         id="path282"
         style="fill:#ffffff;fill-opacity:1;fill-rule:nonzero;stroke:none"
         d="m 3464.61,1349.15 h 630.859 v 302.207 H 3464.61 Z" /><path
         id="path284"
         style="fill:none;stroke:#7f7f7f;stroke-width:21.58639908;stroke-linecap:butt;stroke-linejoin:miter;stroke-miterlimit:10;stroke-dasharray:none;stroke-opacity:1"
         d="m 3464.61,1349.15 h 630.859 v 302.207 H 3464.61 Z" /><path
         id="path286"
         style="fill:#7f7f7f;fill-opacity:1;fill-rule:nonzero;stroke:none"
         d="m 3618.65,1567 v -26 c -6.61,2.96 -13.06,5.18 -19.35,6.67 -6.29,1.51 -12.24,2.26 -17.84,2.26 -7.43,0 -12.92,-1.05 -16.48,-3.15 -3.53,-2.08 -5.3,-5.32 -5.3,-9.72 0,-3.29 1.21,-5.86 3.63,-7.7 2.44,-1.85 6.86,-3.43 13.26,-4.75 l 13.43,-2.74 c 13.59,-2.77 23.25,-6.99 28.99,-12.65 5.73,-5.65 8.6,-13.7 8.6,-24.12 0,-13.7 -3.98,-23.89 -11.93,-30.58 -7.93,-6.68 -20.04,-10.02 -36.35,-10.02 -7.71,0 -15.44,0.74 -23.2,2.23 -7.75,1.51 -15.49,3.73 -23.23,6.68 v 26.83 c 7.72,-4.15 15.18,-7.28 22.39,-9.38 7.22,-2.09 14.18,-3.13 20.88,-3.13 6.8,0 12,1.16 15.61,3.46 3.63,2.33 5.45,5.64 5.45,9.94 0,3.87 -1.25,6.85 -3.75,8.94 -2.47,2.1 -7.42,3.98 -14.85,5.64 l -12.2,2.76 c -12.23,2.67 -21.18,6.9 -26.84,12.71 -5.65,5.82 -8.48,13.66 -8.48,23.51 0,12.36 3.89,21.86 11.67,28.51 7.78,6.64 18.97,9.97 33.56,9.97 6.65,0 13.48,-0.53 20.5,-1.57 7.03,-1.02 14.31,-2.56 21.83,-4.6" /><path
         id="path288"
         style="fill:#7f7f7f;fill-opacity:1;fill-rule:nonzero;stroke:none"
         d="m 3687.26,1564.23 v -26.8 h 30.38 v -21.45 h -30.38 v -37.69 c 0,-4.14 0.87,-6.93 2.62,-8.38 1.75,-1.45 5.23,-2.18 10.42,-2.18 h 15.55 v -21.44 h -25.97 c -11.33,0 -19.38,2.42 -24.12,7.26 -4.73,4.86 -7.09,13.1 -7.09,24.74 v 37.69 h -14.3 v 21.45 h 14.3 v 26.8 h 28.59" /><path
         id="path290"
         style="fill:#7f7f7f;fill-opacity:1;fill-rule:nonzero;stroke:none"
         d="m 3780.39,1487.39 c -6.5,0 -11.39,-1 -14.66,-2.99 -3.28,-1.99 -4.92,-4.93 -4.92,-8.82 0,-3.58 1.32,-6.38 3.94,-8.41 2.64,-2.01 6.32,-3.01 11.03,-3.01 5.85,0 10.77,1.89 14.77,5.69 4,3.82 6,8.58 6,14.3 v 3.24 h -16.16 m 44.76,11.34 v -52.44 h -28.6 v 14.29 c -4,-5.6 -8.5,-9.69 -13.51,-12.26 -4.99,-2.55 -11.07,-3.82 -18.23,-3.82 -9.67,0 -17.51,2.75 -23.54,8.27 -6.03,5.5 -9.05,12.66 -9.05,21.47 0,10.68 3.71,18.52 11.12,23.51 7.4,5 19.03,7.51 34.87,7.51 h 18.34 v 2.51 c 0,4.69 -1.83,8.13 -5.5,10.3 -3.66,2.18 -9.39,3.27 -17.17,3.27 -6.31,0 -12.18,-0.59 -17.62,-1.79 -5.42,-1.19 -10.45,-2.97 -15.1,-5.35 v 23.23 c 6.14,1.17 12.3,2.05 18.48,2.65 6.2,0.61 12.39,0.92 18.57,0.92 16.57,0 28.53,-3.31 35.88,-9.94 7.37,-6.63 11.06,-17.41 11.06,-32.33" /><path
         id="path292"
         style="fill:#7f7f7f;fill-opacity:1;fill-rule:nonzero;stroke:none"
         d="m 3886.21,1564.23 v -26.8 h 30.38 v -21.45 h -30.38 v -37.69 c 0,-4.14 0.87,-6.93 2.62,-8.38 1.75,-1.45 5.22,-2.18 10.42,-2.18 h 15.55 v -21.44 h -25.97 c -11.33,0 -19.38,2.42 -24.12,7.26 -4.73,4.86 -7.1,13.1 -7.1,24.74 v 37.69 h -14.29 v 21.45 h 14.29 v 26.8 h 28.6" /><path
         id="path294"
         style="fill:#7f7f7f;fill-opacity:1;fill-rule:nonzero;stroke:none"
         d="m 4029.46,1493.84 v -8.24 h -69.7 c 0.73,-7.15 3.28,-12.51 7.65,-16.08 4.39,-3.57 10.53,-5.36 18.4,-5.36 6.37,0 12.88,0.88 19.52,2.65 6.67,1.79 13.52,4.48 20.55,8.07 v -23.23 c -6.98,-2.36 -13.96,-4.15 -20.94,-5.36 -6.98,-1.2 -13.96,-1.79 -20.94,-1.79 -16.7,0 -29.68,4.23 -38.95,12.68 -9.26,8.45 -13.88,20.3 -13.88,35.57 0,14.98 4.51,26.77 13.51,35.35 9.03,8.6 21.46,12.9 37.28,12.9 14.39,0 25.9,-4.28 34.54,-12.84 8.64,-8.57 12.96,-20.01 12.96,-34.32 m -28.6,9.63 c 0,5.36 -1.73,9.68 -5.22,12.96 -3.46,3.27 -8,4.91 -13.62,4.91 -6.07,0 -11,-1.54 -14.8,-4.61 -3.8,-3.07 -6.17,-7.49 -7.09,-13.26 h 40.73" /><path
         id="path296"
         style="fill:#ffffff;fill-opacity:1;fill-rule:nonzero;stroke:none"
         d="m 3464.61,1262.8 h 630.859 v 86.3477 H 3464.61 Z" /><path
         id="path298"
         style="fill:none;stroke:#7f7f7f;stroke-width:21.58639908;stroke-linecap:butt;stroke-linejoin:miter;stroke-miterlimit:10;stroke-dasharray:none;stroke-opacity:1"
         d="m 3464.61,1262.8 h 630.859 v 86.3477 H 3464.61 Z" /><path
         id="path300"
         style="fill:#ffffff;fill-opacity:1;fill-rule:nonzero;stroke:none"
         d="m 3464.61,1176.46 h 630.859 v 86.3438 H 3464.61 Z" /><path
         id="path302"
         style="fill:none;stroke:#7f7f7f;stroke-width:21.58639908;stroke-linecap:butt;stroke-linejoin:miter;stroke-miterlimit:10;stroke-dasharray:none;stroke-opacity:1"
         d="m 3464.61,1176.46 h 630.859 v 86.3438 H 3464.61 Z" /><path
         id="path304"
         style="fill:none;stroke:#7f7f7f;stroke-width:21.58639908;stroke-linecap:butt;stroke-linejoin:miter;stroke-miterlimit:10;stroke-dasharray:none;stroke-opacity:1"
         d="m 1542.44,1737.7 h 874.7 v -323.79 h 988.33" /><path
         id="path306"
         style="fill:none;stroke:#7f7f7f;stroke-width:21.58639908;stroke-linecap:butt;stroke-linejoin:miter;stroke-miterlimit:10;stroke-dasharray:none;stroke-opacity:1"
         d="m 3256.91,1327.56 172.7,86.35 -172.7,86.34" /><path
         id="path308"
         style="fill:#7f7f7f;fill-opacity:1;fill-rule:nonzero;stroke:none"
         d="m 1657.09,1863.58 -24.43,-13.01 24.43,-13.1 -3.88,-6.56 -22.92,13.63 v -24.35 h -7.15 v 24.35 l -22.93,-13.63 -3.87,6.56 24.43,13.1 -24.43,13.01 3.87,6.65 22.93,-13.63 v 24.35 h 7.15 v -24.35 l 22.92,13.63 3.88,-6.65" /><path
         id="path310"
         style="fill:#7f7f7f;fill-opacity:1;fill-rule:nonzero;stroke:none"
         d="m 3226.25,1539.79 -24.43,-13.02 24.43,-13.09 -3.88,-6.56 -22.92,13.62 v -24.35 h -7.15 v 24.35 l -22.93,-13.62 -3.88,6.56 24.43,13.09 -24.43,13.02 3.88,6.64 22.93,-13.63 v 24.35 h 7.15 v -24.35 l 22.92,13.63 3.88,-6.64" /></g></g></svg>